<svg id="Capa_1" enable-background="new 0 0 512.013 512.013" height="512" viewBox="0 0 512.013 512.013" width="512"
     xmlns="http://www.w3.org/2000/svg">
    <g id="XMLID_1983_">
        <path id="XMLID_2157_"
              d="m177 298.006h186.669c19.785 0 37.188-13.079 42.691-32.084l48.358-167.017c5.926-20.467-9.43-40.9-30.737-40.9h-299.606z"
              fill="#cda9e1"/>
        <g id="XMLID_1438_">
            <g id="XMLID_1473_">
                <path id="XMLID_1474_"
                      d="m456 414.006h-309.95c-34.522 0-62.608-28.086-62.608-62.608 0-28.945 19.498-53.815 47.518-60.764l-52.733-236.628h-68.227v-44h68.888c20.378 0 37.707 13.893 42.141 33.783l53.054 238.065c5.12 22.98-9.361 46.05-32.282 51.426-8.454 1.982-14.358 9.433-14.358 18.117 0 10.261 8.348 18.608 18.608 18.608h309.949z"
                      fill="#e2e9ee"/>
            </g>
            <g fill="#6d92ac">
                <circle id="XMLID_1472_" cx="203.015" cy="462.84" r="39.167"/>
                <circle id="XMLID_1469_" cx="373.482" cy="462.84" r="39.167"/>
            </g>
        </g>
        <circle id="XMLID_2159_" cx="414.013" cy="98.006" fill="#ffec80" r="88"/>
        <g id="XMLID_287_">
            <path id="XMLID_389_"
                  d="m144.083 343.017c18.529-4.346 32.58-18.081 38.266-35.01h181.32c24.091 0 45.596-16.162 52.296-39.302l21.901-75.639c42.547-10.68 74.147-49.246 74.147-95.059 0-54.038-43.962-98-98-98-35.785 0-67.146 19.283-84.253 48h-35.747c-5.523 0-10 4.477-10 10s4.477 10 10 10h26.703c-3.049 9.459-4.703 19.54-4.703 30 0 54.038 43.962 98 98 98 .732 0 1.46-.012 2.188-.028l-19.446 67.163c-4.239 14.64-17.844 24.865-33.085 24.865h-178.663c-.166-2.763-.545-5.545-1.164-8.327l-47.173-211.674h67.364c5.523 0 10-4.477 10-10s-4.477-10-10-10h-71.821l-1.425-6.393c-5.46-24.498-26.803-41.607-51.901-41.607h-68.887c-5.523 0-10 4.477-10 10v44c0 5.523 4.477 10 10 10h60.21l49.007 219.911c-27.376 10.838-45.775 37.347-45.775 67.481 0 40.037 32.572 72.608 72.608 72.608h26.863c-11.587 9.003-19.065 23.057-19.065 38.833 0 27.11 22.056 49.167 49.167 49.167s49.167-22.056 49.167-49.167c0-15.776-7.477-29.831-19.065-38.833h110.263c-11.587 9.003-19.065 23.057-19.065 38.833 0 27.11 22.056 49.167 49.167 49.167s49.167-22.056 49.167-49.167c0-15.776-7.477-29.831-19.065-38.833h52.416c5.523 0 10-4.477 10-10v-44c0-5.523-4.477-10-10-10h-309.95c-4.747 0-8.608-3.862-8.608-8.608-.001-4.018 2.73-7.464 6.641-8.381zm191.93-245.011c0-43.009 34.991-78 78-78s78 34.991 78 78-34.991 78-78 78-78-34.99-78-78zm-132.998 394c-16.083 0-29.167-13.084-29.167-29.167s13.084-29.167 29.167-29.167 29.167 13.084 29.167 29.167-13.085 29.167-29.167 29.167zm170.467 0c-16.083 0-29.167-13.084-29.167-29.167s13.084-29.167 29.167-29.167 29.167 13.084 29.167 29.167-13.085 29.167-29.167 29.167zm-256.041-140.608c0 15.775 12.833 28.608 28.608 28.608h299.951v24h-299.95c-29.008 0-52.608-23.6-52.608-52.608 0-24.233 16.417-45.229 39.924-51.058 5.271-1.307 8.535-6.581 7.354-11.881l-52.733-236.628c-1.019-4.572-5.076-7.825-9.761-7.825h-58.226v-24h58.888c15.658 0 28.973 10.675 32.38 25.958l53.054 238.065c3.935 17.658-7.193 35.384-24.805 39.515-12.998 3.049-22.076 14.502-22.076 27.854z"/>
            <path id="XMLID_1053_"
                  d="m249.013 68.006c2.63 0 5.21-1.07 7.07-2.93s2.93-4.44 2.93-7.07-1.07-5.21-2.93-7.07-4.44-2.93-7.07-2.93-5.21 1.07-7.07 2.93-2.93 4.44-2.93 7.07 1.07 5.21 2.93 7.07 4.439 2.93 7.07 2.93z"/>
            <path id="XMLID_1058_"
                  d="m448.013 88.006h-24v-24c0-5.523-4.477-10-10-10s-10 4.477-10 10v24h-24c-5.523 0-10 4.477-10 10s4.477 10 10 10h24v24c0 5.523 4.477 10 10 10s10-4.477 10-10v-24h24c5.523 0 10-4.477 10-10s-4.477-10-10-10z"/>
        </g>
    </g>
</svg>