<svg height="512" viewBox="0 0 64 64" width="512" xmlns="http://www.w3.org/2000/svg">
    <g id="Filled_outline" data-name="Filled outline">
        <path d="m21 3h36a0 0 0 0 1 0 0v20a0 0 0 0 1 0 0h-36a10 10 0 0 1 -10-10 10 10 0 0 1 10-10z" fill="#ad6327"/>
        <path d="m21 7h36a0 0 0 0 1 0 0v12a0 0 0 0 1 0 0h-36a6 6 0 0 1 -6-6 6 6 0 0 1 6-6z" fill="#f4f4e6"/>
        <path d="m52 61h-49l2-3-2-3h49a3 3 0 0 1 3 3 3 3 0 0 1 -3 3z" fill="#ffd782"/>
        <path d="m13 49h45a3 3 0 0 1 3 3 3 3 0 0 1 -3 3h-45a0 0 0 0 1 0 0v-6a0 0 0 0 1 0 0z" fill="#96c3f0"/>
        <path d="m8 43h48a0 0 0 0 1 0 0v6a0 0 0 0 1 0 0h-48a3 3 0 0 1 -3-3 3 3 0 0 1 3-3z" fill="#ad6327"/>
        <path d="m55 43h-41l2-6-2-6h41a6 6 0 0 1 6 6 6 6 0 0 1 -6 6z" fill="#ffd782"/>
        <path d="m51 31h-44a4 4 0 0 1 -4-4 4 4 0 0 1 4-4h44z" fill="#96c3f0"/>
        <path d="m46 49-6 6-6-6z" fill="#da1c4b"/>
        <path d="m49 49h9a3 3 0 0 1 3 3 3 3 0 0 1 -3 3h-9a0 0 0 0 1 0 0v-6a0 0 0 0 1 0 0z" fill="#2d75bb"/>
        <path d="m52 7-10 10-10-10z" fill="#da1c4b"/>
        <path d="m18 31 9 9 9-9z" fill="#da1c4b"/>
        <path d="m62 37a7.009 7.009 0 0 0 -7-7h-3v-6h5a1 1 0 0 0 1-1v-20a1 1 0 0 0 -1-1h-36a10.991 10.991 0 0 0 -6.3 20h-7.7a5 5 0 0 0 0 10h6.28l1.666 5-1.666 5h-5.28a4 4 0 0 0 0 8h4v4h-9a1 1 0 0 0 -.832 1.555l1.632 2.445-1.63 2.445a1 1 0 0 0 .83 1.555h49a4 4 0 0 0 4-4 3.959 3.959 0 0 0 -.556-2h2.556a4 4 0 0 0 0-8h-1v-4.3a7.01 7.01 0 0 0 5-6.7zm-6-19h-35a5 5 0 0 1 0-10h10.586l2 2h-13.586v2h15.586l2 2h-18.586v2h20.586l1.707 1.707a1 1 0 0 0 1.414 0l1.707-1.707h9.586v-2h-7.586l2-2h5.586v-2h-3.586l2-2h3.586zm-21.586-10h15.172l-7.586 7.586zm-22.414 5a9.01 9.01 0 0 1 9-9h35v2h-35a7 7 0 0 0 0 14h35v2h-35a9.01 9.01 0 0 1 -9-9zm-5 17a3 3 0 0 1 0-6h43v2h-44v2h44v2zm26.586 2-6.586 6.586-6.586-6.586zm-25.586 16a2 2 0 0 1 0-4h47v4zm28.414 2h7.172l-3.586 3.586zm1.172 4h-23.586v-4h19.586zm8.828-4h1.586v4h-5.586zm5.586 10h-47.132l.964-1.445a1 1 0 0 0 0-1.11l-.964-1.445h47.132a2 2 0 0 1 0 4zm6-10a2 2 0 0 1 0 4h-8v-4zm-3-8h-39.612l1.56-4.684a.977.977 0 0 0 0-.632l-1.56-4.684h2.2l2 2h-1.588v2h3.586l2 2h-5.586v2h7.586l.707.707a1 1 0 0 0 1.414 0l.707-.707h27.586v-2h-25.586l2-2h23.586v-2h-21.586l2-2h18.586a5 5 0 0 1 0 10z"/>
    </g>
</svg>