<svg id="Capa_1" enable-background="new 0 0 512 512" height="512" viewBox="0 0 512 512" width="512"
     xmlns="http://www.w3.org/2000/svg">
    <g id="XMLID_586_">
        <g id="XMLID_1254_">
            <path id="XMLID_1227_"
                  d="m462 322h-412c-22.091 0-40-17.909-40-40v-192c0-22.091 17.909-40 40-40h412c22.091 0 40 17.909 40 40v192c0 22.091-17.909 40-40 40z"
                  fill="#adeefa"/>
            <path id="XMLID_1225_"
                  d="m441.367 338.96-32.981 19.042 39.614 68.615-61.285 35.383-39.615-68.615-24.599 14.202v-137.254z"
                  fill="#ffec80"/>
        </g>
        <g id="XMLID_124_">
            <path id="XMLID_136_"
                  d="m152.138 132h-25.562c-5.523 0-10 4.477-10 10v87.896c0 5.523 4.477 10 10 10h30.026c18.575 0 33.687-15.112 33.687-33.687 0-10.886-5.215-20.575-13.278-26.724 3.385-4.899 5.375-10.837 5.375-17.236.001-16.679-13.569-30.249-30.248-30.249zm-15.562 20h15.562c5.651 0 10.249 4.598 10.249 10.249 0 5.701-4.598 10.338-10.249 10.338h-15.562zm20.026 67.896h-20.026v-27.308h20.026c7.547 0 13.687 6.11 13.687 13.621 0 7.546-6.14 13.687-13.687 13.687z"/>
            <path id="XMLID_144_"
                  d="m357.411 240h.025c5.511 0 9.986-4.461 10-9.976l.103-41.996 26.266-40.35c3.013-4.628 1.703-10.823-2.925-13.836s-10.823-1.703-13.836 2.925l-19.51 29.971-19.723-30.206c-3.02-4.625-9.217-5.926-13.84-2.906-4.625 3.02-5.925 9.216-2.906 13.84l26.475 40.546-.103 41.962c-.015 5.525 4.451 10.012 9.974 10.026z"/>
            <path id="XMLID_145_"
                  d="m214.289 142v60.554c0 13.098 6.026 23.315 18.421 31.234 6.435 4.111 13.699 6.201 21.591 6.212h.064c6.805 0 13.193-1.479 18.985-4.395 18.254-9.194 22.086-23.083 22.086-33.115v-60.49c0-5.523-4.477-10-10-10s-10 4.477-10 10v60.49c0 4.502-1.26 10.305-11.082 15.252-2.976 1.498-6.337 2.258-9.99 2.258-.012 0-.024 0-.036 0-4.082-.006-7.63-1.009-10.851-3.066-7.626-4.872-9.189-9.272-9.189-14.38v-60.554c0-5.523-4.477-10-10-10s-9.999 4.477-9.999 10z"/>
            <path id="XMLID_148_"
                  d="m462 40h-161c-5.523 0-10 4.477-10 10s4.477 10 10 10h161c16.542 0 30 13.458 30 30v192c0 16.542-13.458 30-30 30h-47.33l-87.169-50.327c-3.094-1.786-6.906-1.786-10 0s-5 5.087-5 8.66v41.667h-262.501c-16.542 0-30-13.458-30-30v-192c0-16.542 13.458-30 30-30h161c5.523 0 10-4.477 10-10s-4.477-10-10-10h-161c-27.57 0-50 22.43-50 50v192c0 27.57 22.43 50 50 50h262.501v75.587c0 3.573 1.906 6.874 5 8.66s6.906 1.786 10 0l15.938-9.202 34.615 59.955c1.326 2.297 3.51 3.973 6.072 4.659.852.228 1.722.341 2.588.341 1.741 0 3.467-.455 5-1.34l61.286-35.383c4.783-2.761 6.422-8.877 3.66-13.66l-34.615-59.955 24.321-14.042c3.094-1.786 5-5.087 5-8.66 0-2.636-1.043-5.12-2.83-6.96h13.464c27.57 0 50-22.43 50-50v-192c0-27.57-22.43-50-50-50zm-27.66 382.957-43.965 25.383-34.615-59.955c-1.326-2.297-3.51-3.973-6.072-4.659-.852-.228-1.722-.341-2.588-.341-1.741 0-3.467.455-5 1.34l-9.599 5.542v-102.613l88.866 51.307-17.981 10.381c-2.297 1.326-3.973 3.51-4.659 6.072-.687 2.562-.327 5.292.999 7.588z"/>
            <path id="XMLID_149_"
                  d="m256 60c2.63 0 5.21-1.07 7.07-2.93s2.93-4.44 2.93-7.07-1.07-5.21-2.93-7.07-4.44-2.93-7.07-2.93-5.21 1.07-7.07 2.93-2.93 4.44-2.93 7.07 1.07 5.21 2.93 7.07 4.44 2.93 7.07 2.93z"/>
        </g>
    </g>
</svg>