<svg id="Capa_1" enable-background="new 0 0 512 512" height="512" viewBox="0 0 512 512" width="512"
     xmlns="http://www.w3.org/2000/svg">
    <g>
        <g>
            <path clip-rule="evenodd"
                  d="m267.145 98.127h62.185v232.351h34.493 9.173v-63.211-190.512c0-12.075-9.945-21.94-22.119-21.94h-83.733v43.312z"
                  fill="#ffd47b" fill-rule="evenodd"/>
        </g>
        <g>
            <path clip-rule="evenodd"
                  d="m74.16 436.379v-338.252h62.185v-43.312h-83.732c-12.174 0-22.119 9.864-22.119 21.94v190.513 190.485c0 12.075 9.945 21.94 22.119 21.94h149.147 106.823v-43.313h-106.823-127.6z"
                  fill="#ffd47b" fill-rule="evenodd"/>
        </g>
        <g>
            <path clip-rule="evenodd"
                  d="m136.345 98.127h130.8v-43.312-7.257h-34.836v-7.257c0-16.667-13.746-30.302-30.55-30.302-16.832 0-30.578 13.634-30.578 30.302v7.257h-34.836v7.257z"
                  fill="#cfd3df" fill-rule="evenodd"/>
        </g>
        <g>
            <path clip-rule="evenodd"
                  d="m329.33 330.479v-232.352h-62.185-130.8-62.185v338.252h127.6 106.823v-105.9zm-156.748-184.504v54.311h-54.726v-54.311zm-54.727 94.137h54.726v54.282h-54.726zm0 94.109h54.726v54.311h-54.726z"
                  fill="#fff" fill-rule="evenodd"/>
        </g>
        <g>
            <path clip-rule="evenodd" d="m117.855 145.975h54.726v54.311h-54.726z" fill="#98eaf9" fill-rule="evenodd"/>
        </g>
        <g>
            <path clip-rule="evenodd" d="m117.855 240.112h54.726v54.282h-54.726z" fill="#98eaf9" fill-rule="evenodd"/>
        </g>
        <g>
            <path clip-rule="evenodd" d="m117.855 334.221h54.726v54.311h-54.726z" fill="#98eaf9" fill-rule="evenodd"/>
        </g>
        <g>
            <path clip-rule="evenodd"
                  d="m308.583 502h172.924v-171.521h-55.241v70.893l-31.207-19.077-31.235 19.077v-70.893h-34.494-20.747v105.9 43.313z"
                  fill="#ffd47b" fill-rule="evenodd"/>
        </g>
        <g>
            <path clip-rule="evenodd" d="m426.266 401.372v-70.893h-53.269-9.173v70.893l31.235-19.077z" fill="#fff1d8"
                  fill-rule="evenodd"/>
        </g>
        <g>
            <path d="m481.507 320.479h-98.51v-243.725c0-17.611-14.408-31.939-32.119-31.939h-74.123c-1.194-4.188-5.04-7.257-9.61-7.257h-24.929c-1.424-20.947-19.025-37.558-40.456-37.558-21.446 0-39.06 16.611-40.485 37.558h-24.929c-4.57 0-8.416 3.069-9.61 7.257h-74.124c-17.711 0-32.119 14.328-32.119 31.939v380.998c0 17.612 14.408 31.94 32.119 31.94h245.971v12.308c0 5.523 4.478 10 10 10h172.924c5.522 0 10-4.477 10-10v-171.521c0-5.523-4.478-10-10-10zm-107.684 20h42.442v43.06l-15.991-9.775c-3.201-1.956-7.227-1.957-10.428-.002l-16.023 9.786zm-10.826-263.725v243.725h-23.667v-222.352c0-5.523-4.478-10-10-10h-52.185v-23.312h73.732c6.684 0 12.12 5.356 12.12 11.939zm-54.414 243.725c-5.522 0-10 4.477-10 10v95.9h-214.423v-318.252h235.17v212.352zm-137.401-262.921c5.522 0 10-4.477 10-10v-7.256c0-11.194 9.231-20.302 20.578-20.302 11.331 0 20.55 9.107 20.55 20.302v7.256c0 5.523 4.478 10 10 10h24.836v30.569h-110.8v-30.569zm-118.57 412.134c-6.683 0-12.119-5.356-12.119-11.94v-380.998c0-6.583 5.437-11.939 12.119-11.939h73.733v23.312h-52.185c-5.522 0-10 4.477-10 10v338.252c0 5.523 4.478 10 10 10h224.423v23.312h-245.971zm418.895 22.308h-152.924v-151.521h35.24v60.893c0 3.617 1.953 6.952 5.107 8.721 3.153 1.769 7.017 1.699 10.104-.187l26.021-15.892 25.993 15.89c1.599.977 3.406 1.468 5.216 1.468 1.685 0 3.37-.425 4.891-1.278 3.155-1.769 5.109-5.104 5.109-8.722v-60.893h35.241v151.521z"/>
            <path d="m172.582 135.976h-54.727c-5.522 0-10 4.477-10 10v54.311c0 5.523 4.478 10 10 10h54.727c5.522 0 10-4.477 10-10v-54.311c0-5.523-4.478-10-10-10zm-10 54.31h-34.727v-34.311h34.727z"/>
            <path d="m172.582 324.221h-54.727c-5.522 0-10 4.477-10 10v54.311c0 5.523 4.478 10 10 10h54.727c5.522 0 10-4.477 10-10v-54.311c0-5.523-4.478-10-10-10zm-10 54.31h-34.727v-34.311h34.727z"/>
            <path d="m172.582 230.112h-54.727c-5.522 0-10 4.477-10 10v54.282c0 5.523 4.478 10 10 10h54.727c5.522 0 10-4.477 10-10v-54.282c0-5.523-4.478-10-10-10zm-10 54.283h-34.727v-34.282h34.727z"/>
            <path d="m285.664 183.71h-65.758c-5.522 0-10 4.477-10 10s4.478 10 10 10h65.758c5.522 0 10-4.477 10-10s-4.477-10-10-10z"/>
            <path d="m285.664 142.552h-65.758c-5.522 0-10 4.477-10 10s4.478 10 10 10h65.758c5.522 0 10-4.477 10-10s-4.477-10-10-10z"/>
            <path d="m285.664 277.847h-65.758c-5.522 0-10 4.477-10 10s4.478 10 10 10h65.758c5.522 0 10-4.477 10-10s-4.477-10-10-10z"/>
            <path d="m285.664 236.66h-65.758c-5.522 0-10 4.477-10 10s4.478 10 10 10h65.758c5.522 0 10-4.477 10-10s-4.477-10-10-10z"/>
            <path d="m261.287 371.955h-41.381c-5.522 0-10 4.477-10 10s4.478 10 10 10h41.381c5.522 0 10-4.477 10-10s-4.477-10-10-10z"/>
            <path d="m261.287 330.797h-41.381c-5.522 0-10 4.477-10 10s4.478 10 10 10h41.381c5.522 0 10-4.477 10-10s-4.477-10-10-10z"/>
        </g>
    </g>
</svg>