<svg height="496pt" viewBox="0 0 496.00629 496" width="496pt" xmlns="http://www.w3.org/2000/svg">
    <path d="m80 264.003906h112v224h-32l-24-152-24 152h-32zm0 0" fill="#b3b3b3"/>
    <path d="m80 488.003906h32l24-152 24 152h32v-200h-112zm0 0" fill="#e6e6e6"/>
    <path d="m136 152.003906-40-112h80zm0 0" fill="#b3b3b3"/>
    <path d="m72 112.003906 8 120h112l8-120 24 80h40l-32-128-56-24-40 112-40-112-56 24-32 128h40z" fill="#b3b3b3"/>
    <path d="m176 64.003906-40 112-40-112-56 24-26 104h34l24-80 8 120h112l8-120 24 80h34l-26-104zm0 0" fill="#e6e6e6"/>
    <path d="m320 200.003906h96c8.839844 0 16 7.160156 16 16s-7.160156 16-16 16h-96c-8.839844 0-16-7.160156-16-16s7.160156-16 16-16zm0 0"
          fill="#911d22"/>
    <path d="m408 216.003906c0-8.839844-7.160156-16-16-16h-72c-8.839844 0-16 7.160156-16 16s7.160156 16 16 16h72c8.839844 0 16-7.160156 16-16zm0 0"
          fill="#c1272d"/>
    <path d="m320 200.003906-20.457031-81.832031c-2.351563-9.410156-3.542969-19.074219-3.542969-28.777344 0-18.4375 14.953125-33.390625 33.390625-33.390625 13.65625 0 25.9375 8.3125 31 20.992188l7.609375 19.007812 7.597656-19.007812c5.074219-12.679688 17.355469-20.992188 31.007813-20.992188 18.441406 0 33.394531 14.953125 33.394531 33.390625v6.769531c0 5.207032-.640625 10.390626-1.90625 15.4375l-22.09375 88.402344zm0 0"
          fill="#666"/>
    <path d="m375.597656 100.996094-7.597656 19.007812-7.601562-19.007812c-5.070313-12.679688-17.351563-20.992188-31.007813-20.992188-15.597656 0-28.589844 10.742188-32.253906 25.199219.582031 4.359375 1.34375 8.695313 2.40625 12.96875l20.457031 81.832031h96l22.09375-88.402344c.457031-1.832031.738281-3.695312 1.035156-5.550781-3.355468-14.894531-16.609375-26.046875-32.523437-26.046875-13.652344 0-25.933594 8.3125-31.007813 20.992188zm0 0"
          fill="#e6e6e6"/>
    <path d="m318.289062 232.003906-68.890624 220.085938c-3.503907 11.191406-.3125 23.328125 8.3125 31.59375l.023437.015625c5.984375 5.734375 15.695313 5.734375 21.679687 0l3.175782-3.046875c5.984375-5.738282 15.699218-5.738282 21.679687 0l3.179688 3.046875c5.980469 5.734375 15.695312 5.734375 21.679687 0l3.175782-3.046875c5.984374-5.738282 15.695312-5.738282 21.679687 0l3.175781 3.046875c5.984375 5.734375 15.695313 5.734375 21.679688 0l3.175781-3.046875c5.984375-5.738282 15.695313-5.738282 21.679687 0l3.175782 3.046875c5.984375 5.734375 15.695312 5.734375 21.679687 0l3.175781-3.046875c5.984376-5.738282 15.695313-5.738282 21.679688 0l3.175781 3.046875c5.984375 5.734375 15.695313 5.734375 21.679688 0l.027343-.015625c8.621094-8.265625 11.8125-20.402344 8.308594-31.59375l-68.886718-220.085938zm0 0"
          fill="#ccc"/>
    <path d="m253.449219 478.539062c5.902343-3.464843 13.703125-2.785156 18.8125 2.113282l3.175781 3.046875c.617188.59375 1.296875 1.078125 1.984375 1.550781.6875-.472656 1.371094-.957031 1.984375-1.550781l3.175781-3.046875c5.371094-5.144532 13.714844-5.640625 19.695313-1.554688 5.984375-4.085937 14.328125-3.589844 19.699218 1.554688l3.175782 3.046875c.613281.59375 1.296875 1.078125 1.984375 1.550781.6875-.472656 1.367187-.957031 1.984375-1.550781l3.175781-3.046875c5.367187-5.144532 13.710937-5.640625 19.695313-1.554688 5.984374-4.085937 14.328124-3.589844 19.695312 1.554688l3.175781 3.046875c.617188.59375 1.296875 1.078125 1.984375 1.550781.6875-.472656 1.367188-.957031 1.984375-1.550781l3.175781-3.046875c5.367188-5.144532 13.710938-5.640625 19.695313-1.554688 5.984375-4.085937 14.328125-3.589844 19.695313 1.554688l3.175781 3.046875c.617187.59375 1.296875 1.078125 1.984375 1.550781.6875-.472656 1.367187-.957031 1.984375-1.550781l3.175781-3.046875c5.113281-4.898438 12.914062-5.578125 18.816406-2.113282 5.273438-7.742187 6.886719-17.382812 4.046875-26.449218l-68.871093-220.085938h-67.433594l-68.886719 220.085938c-2.832031 9.066406-1.207031 18.707031 4.058594 26.449218zm0 0"
          fill="#e6e6e6"/>
    <path d="m268.566406 495.972656c-5.839844 0-11.679687-2.105468-16.167968-6.304687-.078126-.074219-.160157-.144531-.230469-.207031-10.839844-10.394532-14.832031-25.625-10.410157-39.761719l68.890626-220.089844 15.261718 4.785156-68.878906 220.089844c-2.566406 8.222656-.246094 17.125 6.054688 23.277344.066406.058593.121093.113281.175781.167969 2.875 2.761718 7.722656 2.761718 10.601562 0l3.183594-3.046876c9.03125-8.65625 23.71875-8.648437 32.746094-.007812l3.183593 3.054688c2.871094 2.753906 7.726563 2.753906 10.605469 0l3.167969-3.046876c9.042969-8.65625 23.730469-8.65625 32.753906 0l3.175782 3.046876c2.871093 2.753906 7.734374 2.753906 10.609374 0l3.175782-3.046876c9.023437-8.65625 23.710937-8.648437 32.742187-.007812l3.183594 3.054688c2.878906 2.753906 7.730469 2.769531 10.601563 0l3.183593-3.046876c9.03125-8.65625 23.71875-8.648437 32.742188-.007812l3.183593 3.054688c2.867188 2.746093 7.722657 2.746093 10.601563 0 .0625-.054688.128906-.117188.183594-.167969 6.304687-6.160157 8.625-15.054688 6.046875-23.269531l-68.855469-220.097657 15.265625-4.785156 68.886719 220.089844c4.425781 14.136719.441406 29.367187-10.40625 39.761719-.082031.078124-.160157.148437-.242188.222656-9.039062 8.441406-23.574219 8.375-32.527343-.207032l-3.175782-3.050781c-2.871094-2.75-7.726562-2.757812-10.617187.007813l-3.175781 3.042968c-9.023438 8.65625-23.71875 8.671876-32.75 0l-3.175782-3.050781c-2.863281-2.75-7.730468-2.75-10.609375 0l-3.175781 3.050781c-9.03125 8.65625-23.71875 8.65625-32.75 0l-3.175781-3.050781c-2.875-2.75-7.730469-2.757812-10.617188.007813l-3.167969 3.042968c-9.023437 8.65625-23.722656 8.65625-32.761718 0l-3.175782-3.050781c-2.871093-2.75-7.726562-2.757812-10.617187.007813l-3.175781 3.042968c-4.503906 4.335938-10.4375 6.496094-16.367188 6.496094zm0 0"/>
    <path d="m320 .00390625h16v55.99999975h-16zm0 0"/>
    <path d="m400 .00390625h16v55.99999975h-16zm0 0"/>
    <path d="m416 240.003906h-96c-13.234375 0-24-10.769531-24-24 0-13.234375 10.765625-24 24-24h96c13.230469 0 24 10.765625 24 24 0 13.230469-10.769531 24-24 24zm-96-32c-4.410156 0-8 3.582032-8 8 0 4.414063 3.589844 8 8 8h96c4.40625 0 8-3.585937 8-8 0-4.417968-3.59375-8-8-8zm0 0"/>
    <path d="m288.117188 470.433594 48.042968-239.976563 15.6875 3.140625-48.042968 239.976563zm0 0"/>
    <path d="m384.160156 233.582031 15.6875-3.136719 47.996094 240.003907-15.6875 3.136719zm0 0"/>
    <path d="m360 232.003906h16v256h-16zm0 0"/>
    <path d="m312.238281 201.9375-20.453125-81.832031c-2.515625-10.039063-3.785156-20.375-3.785156-30.710938 0-22.824219 18.566406-41.390625 41.390625-41.390625 17.023437 0 32.113281 10.207032 38.433594 26.023438l.175781.449218.175781-.449218c6.320313-15.816406 21.40625-26.023438 38.429688-26.023438 22.824219 0 41.394531 18.566406 41.394531 41.390625v6.777344c0 5.863281-.722656 11.710937-2.144531 17.382813l-22.097657 88.382812-15.519531-3.871094 22.097657-88.398437c1.101562-4.410157 1.664062-8.945313 1.664062-13.496094v-6.777344c0-14-11.394531-25.390625-25.394531-25.390625-10.445313 0-19.695313 6.261719-23.574219 15.960938l-7.609375 19.007812c-1.214844 3.039063-4.152344 5.03125-7.421875 5.03125-3.273438 0-6.207031-1.992187-7.425781-5.03125l-7.605469-19.007812c-3.882812-9.699219-13.136719-15.960938-23.578125-15.960938-14 0-25.390625 11.390625-25.390625 25.390625 0 9.03125 1.109375 18.066407 3.304688 26.839844l20.453124 81.832031zm0 0"/>
    <path d="m192 240.003906h-112c-4.207031 0-7.703125-3.265625-7.984375-7.472656l-5.054687-75.878906-11.296876 37.648437c-1.015624 3.382813-4.136718 5.703125-7.664062 5.703125h-40c-2.464844 0-4.792969-1.136718-6.304688-3.082031-1.511718-1.933594-2.054687-4.472656-1.457031-6.855469l32-128c.609375-2.429687 2.3125-4.429687 4.609375-5.414062l56-24c2.023438-.863282 4.328125-.863282 6.351563.015625 2.023437.878906 3.59375 2.558593 4.335937 4.648437l32.464844 90.894532 32.464844-90.894532c.742187-2.089844 2.308594-3.769531 4.335937-4.648437 2.023438-.871094 4.328125-.871094 6.351563-.015625l56 24c2.296875.984375 4 2.984375 4.605468 5.414062l32 128c.601563 2.394532.058594 4.921875-1.453124 6.855469-1.511719 1.945313-3.839844 3.082031-6.304688 3.082031h-40c-3.527344 0-6.648438-2.320312-7.664062-5.703125l-11.296876-37.648437-5.0625 75.878906c-.273437 4.207031-3.769531 7.472656-7.976562 7.472656zm-104.511719-16h97.03125l7.503907-112.527344c.253906-3.855468 3.238281-6.984374 7.078124-7.425781 3.898438-.398437 7.449219 1.953125 8.5625 5.65625l22.289063 74.296875h23.796875l-28.550781-114.207031-44.527344-19.089844-37.136719 103.984375c-1.136718 3.183594-4.152344 5.3125-7.535156 5.3125s-6.402344-2.128906-7.535156-5.3125l-37.136719-103.984375-25.410156 10.886719 13.777343 48.210938c.160157.542968.257813 1.101562.289063 1.664062zm-69.242187-40h23.800781l21.617187-72.058594-12.570312-43.988281-4.292969 1.839844zm0 0"/>
    <path d="m192.320312 109.8125 15.988282-56.003906 15.386718 4.390625-15.988281 56.003906zm0 0"/>
    <path d="m96 8.003906h80v32h-80zm0 0" fill="#666"/>
    <path d="m176 48.003906h-80c-4.417969 0-8-3.578125-8-8v-32c0-4.425781 3.582031-7.99999975 8-7.99999975h80c4.414062 0 8 3.57421875 8 7.99999975v32c0 4.421875-3.585938 8-8 8zm-72-16h64v-16h-64zm0 0"/>
    <path d="m128 152.003906h16v80h-16zm0 0"/>
    <path d="m192 496.003906h-32c-3.9375 0-7.289062-2.863281-7.90625-6.753906l-16.09375-101.949219-16.097656 101.949219c-.613282 3.890625-3.96875 6.753906-7.902344 6.753906h-32c-4.417969 0-8-3.578125-8-8v-224c0-4.425781 3.582031-8 8-8h112c4.414062 0 8 3.574219 8 8v224c0 4.421875-3.585938 8-8 8zm-25.167969-16h17.167969v-208h-96v208h17.167969l22.933593-145.25c.609376-3.886718 3.960938-6.75 7.898438-6.75 3.933594 0 7.289062 2.863282 7.902344 6.75zm0 0"/>
</svg>