<svg id="Capa_1" enable-background="new 0 0 512.006 512.006" height="512" viewBox="0 0 512.006 512.006" width="512"
     xmlns="http://www.w3.org/2000/svg">
    <path id="XMLID_2545_"
          d="m405.237 10 74.739 74.739c24.839 24.839 24.839 65.111 0 89.95l-74.739 74.739h-369.222c-14.367 0-26.014-11.647-26.014-26.014v-187.4c0-14.367 11.647-26.014 26.014-26.014z"
          fill="#f5737f"/>
    <path id="XMLID_2483_"
          d="m332.7 64.006h141.685c10.785 10.785 16.832 16.832 27.617 27.617v141.685l-261.08 261.079c-10.159 10.159-26.63 10.159-36.789 0l-132.512-132.512c-10.159-10.159-10.159-26.63 0-36.789z"
          fill="#91def5"/>
    <circle id="XMLID_2590_" cx="438.001" cy="128.006" fill="#f5737f" r="20"/>
    <circle id="XMLID_2480_" cx="179.58" cy="169.431" fill="#fff" r="20.003"/>
    <circle id="XMLID_2476_" cx="95.173" cy="89.997" fill="#fff" r="20.003"/>
    <path id="XMLID_1468_"
          d="m502.335 77.815 6.741-6.741c3.905-3.905 3.905-10.237 0-14.143-3.905-3.904-10.237-3.904-14.143 0l-6.741 6.741-6.737-6.737c-1.875-1.875-4.419-2.929-7.071-2.929h-10.999l-51.077-51.077c-1.876-1.875-4.419-2.929-7.071-2.929h-369.222c-19.858 0-36.014 16.155-36.014 36.014v187.401c0 19.858 16.156 36.014 36.014 36.014h87.12l-58.585 58.586c-6.802 6.802-10.548 15.846-10.548 25.466 0 9.619 3.746 18.663 10.548 25.466l132.512 132.512c6.802 6.802 15.846 10.548 25.466 10.548s18.664-3.746 25.466-10.548l99.247-99.246c3.906-3.905 3.906-10.237 0-14.143-3.905-3.903-10.237-3.904-14.142 0l-99.248 99.246c-3.024 3.025-7.046 4.69-11.323 4.69s-8.299-1.665-11.323-4.69l-132.513-132.512c-3.024-3.024-4.69-7.046-4.69-11.323 0-4.278 1.666-8.299 4.69-11.323l258.15-258.15h133.401l3.808 3.808-23.124 23.124c-3.917-1.878-8.3-2.931-12.926-2.931-16.542 0-30 13.458-30 30s13.458 30 30 30 30-13.458 30-30c0-4.626-1.054-9.01-2.932-12.926l23.124-23.124 3.808 3.808v133.4l-95.264 95.265c-3.905 3.905-3.905 10.237 0 14.143 3.905 3.904 10.237 3.904 14.143 0l98.193-98.193c1.875-1.876 2.929-4.419 2.929-7.071v-141.688c0-2.652-1.054-5.195-2.929-7.071zm-322.755 101.62c-5.516 0-10.003-4.487-10.003-10.003 0-5.517 4.487-10.004 10.003-10.004s10.003 4.487 10.003 10.004c0 5.515-4.487 10.003-10.003 10.003zm153.12-125.428c-2.652 0-5.196 1.054-7.071 2.929l-116.294 116.293c.158-1.245.249-2.511.249-3.798 0-16.544-13.459-30.004-30.003-30.004-16.543 0-30.003 13.46-30.003 30.004s13.459 30.003 30.003 30.003c1.287 0 2.553-.091 3.798-.249l-40.243 40.243h-107.121c-8.83 0-16.014-7.184-16.014-16.014v-187.4c0-8.83 7.184-16.014 16.014-16.014h365.079l34.007 34.007zm105.301 84c-5.514 0-10-4.486-10-10s4.486-10 10-10c2.282 0 4.382.777 6.067 2.069.265.346.547.684.863 1s.654.598 1 .863c1.292 1.685 2.069 3.785 2.069 6.067.001 5.515-4.485 10.001-9.999 10.001z"/>
    <path id="XMLID_1527_"
          d="m332.599 295.835c2.652 0 5.196-1.054 7.071-2.929l22.627-22.628c3.905-3.905 3.905-10.237 0-14.143-3.905-3.904-10.237-3.904-14.142 0l-15.556 15.557-49.498-49.497c-3.904-3.904-10.237-3.904-14.142 0-3.905 3.905-3.905 10.237 0 14.143l56.569 56.568c1.876 1.875 4.42 2.929 7.071 2.929z"/>
    <path id="XMLID_1528_"
          d="m410.381 208.053c-3.905-3.904-10.237-3.904-14.143 0l-12.728 12.728-14.142-14.141 12.728-12.728c3.905-3.905 3.905-10.237 0-14.143-3.905-3.904-10.237-3.904-14.143 0l-12.728 12.728-14.142-14.142 12.728-12.728c3.905-3.905 3.906-10.237 0-14.143-3.905-3.903-10.237-3.904-14.142 0l-19.799 19.799c-1.875 1.875-2.929 4.419-2.929 7.071s1.054 5.195 2.929 7.071l56.569 56.568c1.952 1.952 4.512 2.929 7.071 2.929s5.119-.977 7.071-2.929l19.799-19.799c3.906-3.904 3.906-10.236.001-14.141z"/>
    <path id="XMLID_1531_"
          d="m299.776 323.029c4.919 2.508 10.942.55 13.45-4.371 2.507-4.921.55-10.942-4.372-13.449l-74.953-38.184c-3.86-1.967-8.547-1.224-11.61 1.839s-3.806 7.751-1.839 11.61l38.184 74.953c1.766 3.468 5.276 5.464 8.918 5.463 1.527 0 3.078-.351 4.531-1.092 4.921-2.507 6.878-8.528 4.372-13.449l-3.066-6.02 20.367-20.367zm-35.932-1.437-11.604-22.779 22.78 11.605z"/>
    <path id="XMLID_1532_"
          d="m203.906 400.386c-3.905 3.905-3.906 10.237 0 14.143 1.953 1.952 4.512 2.929 7.071 2.929s5.119-.977 7.071-2.929l14.143-14.142c11.697-11.697 11.697-30.729 0-42.427-11.118-11.118-28.857-11.66-40.632-1.644-.366.277-.722.571-1.055.905l-.74.739c-1.889 1.889-4.4 2.929-7.071 2.929s-5.182-1.04-7.071-2.929c-3.899-3.899-3.899-10.243 0-14.143l14.142-14.142c3.905-3.905 3.906-10.237 0-14.143-3.905-3.903-10.237-3.904-14.142 0l-14.143 14.142c-11.697 11.697-11.697 30.73 0 42.428 5.667 5.666 13.2 8.786 21.213 8.786 8.002 0 15.526-3.112 21.192-8.766.007-.007.015-.013.022-.02 3.898-3.9 10.243-3.9 14.142 0 1.889 1.889 2.929 4.399 2.929 7.07 0 2.672-1.04 5.183-2.929 7.071z"/>
    <path id="XMLID_1533_"
          d="m171.339 64.557c-4.809-2.714-10.909-1.018-13.624 3.792l-64.5 114.254c-2.715 4.81-1.018 10.909 3.792 13.624 1.554.877 3.241 1.294 4.907 1.294 3.49 0 6.879-1.83 8.717-5.086l64.5-114.254c2.715-4.81 1.018-10.91-3.792-13.624z"/>
    <path id="XMLID_1536_"
          d="m125.176 89.997c0-16.544-13.459-30.003-30.003-30.003s-30.004 13.459-30.004 30.003 13.459 30.004 30.003 30.004 30.004-13.46 30.004-30.004zm-40.007 0c0-5.516 4.487-10.003 10.003-10.003s10.003 4.487 10.003 10.003c0 5.517-4.487 10.004-10.003 10.004s-10.003-4.487-10.003-10.004z"/>
    <path id="XMLID_1537_"
          d="m371.991 353.319c-2.64 0-5.21 1.07-7.07 2.931-1.86 1.859-2.93 4.439-2.93 7.069 0 2.631 1.07 5.211 2.93 7.07 1.86 1.86 4.43 2.93 7.07 2.93 2.63 0 5.21-1.069 7.07-2.93 1.86-1.859 2.93-4.439 2.93-7.07 0-2.63-1.07-5.21-2.93-7.069-1.86-1.86-4.44-2.931-7.07-2.931z"/>
</svg>