<svg id="Capa_1" enable-background="new 0 0 512 512" height="512" viewBox="0 0 512 512" width="512"
     xmlns="http://www.w3.org/2000/svg">
    <g>
        <path d="m324.997 277.04h-90.063v5.196c0 14.09-11.422 25.511-25.511 25.511-14.089 0-25.511-11.422-25.511-25.511v-5.196h-90.064c-16.569 0-30 13.431-30 30v192.46c0 2.761 2.239 5 5 5h210.086v-187.199c0-2.761 2.239-5 5-5h71.063v-5.261c0-16.569-13.432-30-30-30z"
              fill="#0593fc"/>
        <path d="m94.851 409v-101.96c0-16.569 13.431-30 30-30h-31.003c-16.569 0-30 13.431-30 30v101.96z"
              fill="#0182fc"/>
        <g>
            <path d="m115.934 414c0-2.761-2.239-5-5-5h-47.086v90.5c0 2.761 2.239 5 5 5h47.086z" fill="#f1b0a2"/>
        </g>
        <g>
            <path d="m94.914 499.5v-90.5h-31.066v90.5c0 2.761 2.239 5 5 5h31.066c-2.761 0-5-2.239-5-5z" fill="#eb9c8d"/>
        </g>
        <g>
            <path d="m244.833 47.678v39.303h16.009c16.269 0 29.458 13.189 29.458 29.458v14.782h13.484c4.179 0 8.177.77 11.869 2.165v-57.358c0-26.666-21.617-48.282-48.282-48.282h-27.835c3.364 5.875 5.297 12.676 5.297 19.932z"
                  fill="#fb8801"/>
            <path d="m115.061 131.22h13.484v-14.782c0-16.269 13.189-29.458 29.458-29.458h86.832v-39.302c0-22.19-17.988-40.178-40.178-40.178h-91.048c-5.752 0-10.415 4.663-10.415 10.415v115.47c3.689-1.395 7.687-2.165 11.867-2.165z"
                  fill="#fe9901"/>
            <path d="m115.061 131.22h13.484v-14.782c0-11.601 6.709-21.631 16.456-26.435v-72.088c0-5.752 4.663-10.415 10.415-10.415h-41.808c-5.752 0-10.415 4.663-10.415 10.415v115.47c3.69-1.395 7.688-2.165 11.868-2.165z"
                  fill="#fb8801"/>
            <path d="m234.934 277.04v5.196c0 14.09-11.422 25.511-25.511 25.511-14.089 0-25.511-11.422-25.511-25.511v-5.196h-25v5.196c0 27.852 22.659 50.511 50.511 50.511 27.853 0 50.512-22.659 50.512-50.511v-5.196z"
                  fill="#0182fc"/>
            <path d="m183.911 255.863v26.373c0 14.09 11.422 25.511 25.511 25.511 14.09 0 25.511-11.422 25.511-25.511v-26.373z"
                  fill="#eb9c8d"/>
            <g fill="#eb9c8d">
                <path d="m128.544 131.22h-13.484c-18.548 0-33.584 15.036-33.584 33.584v6.871c0 18.548 15.036 33.584 33.584 33.584h13.484z"/>
                <path d="m303.784 131.22h-13.484v74.04h13.484c18.548 0 33.584-15.036 33.584-33.584v-6.871c0-18.548-15.036-33.585-33.584-33.585z"/>
            </g>
            <g>
                <path d="m241.352 255.863h-63.86c-27.033 0-48.948-21.915-48.948-48.948v-90.477c0-16.269 13.189-29.458 29.458-29.458h102.841c16.269 0 29.458 13.189 29.458 29.458v90.477c-.001 27.033-21.915 48.948-48.949 48.948z"
                      fill="#f1b0a2"/>
            </g>
            <g>
                <path d="m160 206.915v-90.477c0-16.269 13.189-29.458 29.458-29.458h-31.456c-16.269 0-29.458 13.189-29.458 29.458v90.477c0 27.033 21.915 48.948 48.948 48.948h31.456c-27.033 0-48.948-21.915-48.948-48.948z"
                      fill="#eb9c8d"/>
            </g>
        </g>
        <g>
            <g>
                <path d="m443.152 504.5h-164.218v-187.199c0-2.761 2.239-5 5-5h159.219c2.761 0 5 2.239 5 5v182.199c-.001 2.761-2.239 5-5.001 5z"
                      fill="#fed402"/>
            </g>
            <g>
                <path d="m315 312.301h-31.066c-2.761 0-5 2.239-5 5v187.199h31.066v-187.199c0-2.761 2.239-5 5-5z"
                      fill="#fac600"/>
            </g>
            <g>
                <path d="m443.152 504.5h-164.218v-45.961h169.219v40.961c-.001 2.761-2.239 5-5.001 5z" fill="#fac600"/>
            </g>
            <g>
                <path d="m278.934 458.539h31.066v45.961h-31.066z" fill="#e8b800"/>
            </g>
        </g>
        <g>
            <path d="m209.422 225.368c10.067 0 19.532-3.92 26.65-11.039 2.93-2.929 2.93-7.677.001-10.606s-7.678-2.929-10.606 0c-4.286 4.285-9.984 6.646-16.045 6.646s-11.758-2.36-16.043-6.646c-2.929-2.929-7.678-2.929-10.606 0-2.93 2.929-2.93 7.677-.001 10.606 7.118 7.119 16.582 11.039 26.65 11.039z"/>
            <path d="m195.468 178.152 9.152 7.627c1.402 1.168 3.104 1.739 4.798 1.738 2.148 0 4.282-.918 5.766-2.698 2.651-3.182 2.222-7.912-.96-10.563l-4.688-3.906 6.663-14.064c1.774-3.743.177-8.215-3.566-9.989-3.743-1.773-8.215-.177-9.988 3.566l-9.152 19.316c-1.466 3.092-.653 6.783 1.975 8.973z"/>
            <path d="m178.253 140.691c0-4.142-3.357-7.5-7.5-7.5s-7.5 3.358-7.5 7.5v14.658c0 4.142 3.357 7.5 7.5 7.5s7.5-3.358 7.5-7.5z"/>
            <path d="m248.091 162.849c4.143 0 7.5-3.358 7.5-7.5v-14.658c0-4.142-3.357-7.5-7.5-7.5s-7.5 3.358-7.5 7.5v14.658c0 4.142 3.357 7.5 7.5 7.5z"/>
            <path d="m448.152 384.5c4.143 0 7.5-3.358 7.5-7.5v-59.699c0-6.893-5.607-12.5-12.5-12.5h-33.461v-5.035c0-25.447-20.702-46.149-46.148-46.149-13.974 0-26.508 6.252-34.978 16.096-1.175-.111-2.364-.174-3.568-.174h-82.563v-6.205c28.661-.543 52.166-22.539 55.064-50.575h6.287c22.653 0 41.084-18.43 41.084-41.084v-6.871c0-15.654-8.803-29.287-21.716-36.22v-13.584c0-4.142-3.357-7.5-7.5-7.5s-7.5 3.358-7.5 7.5v8.955c-1.436-.152-2.892-.235-4.368-.235h-5.985v-7.283c0-20.378-16.579-36.958-36.957-36.958h-8.51v-31.801c0-4.301-.582-8.467-1.655-12.433h16.692c22.487 0 40.782 18.295 40.782 40.782v3.973c0 4.142 3.357 7.5 7.5 7.5s7.5-3.358 7.5-7.5v-3.973c0-30.758-25.023-55.782-55.782-55.782h-23.756c-8.639-12.233-22.876-20.245-38.959-20.245h-91.048c-9.878 0-17.915 8.037-17.915 17.915v110.669c-12.914 6.933-21.717 20.567-21.717 36.221v6.871c0 22.654 18.431 41.084 41.085 41.084h6.286c2.898 28.036 26.402 50.032 55.065 50.575v6.205h-82.563c-20.678 0-37.5 16.822-37.5 37.5v192.46c0 6.893 5.607 12.5 12.5 12.5h374.305c6.893 0 12.5-5.607 12.5-12.5v-87.5c0-4.142-3.357-7.5-7.5-7.5s-7.5 3.358-7.5 7.5v39.04h-154.219v-131.239h30.961v29.111c0 4.142 3.357 7.5 7.5 7.5s7.5-3.358 7.5-7.5v-29.111h62.297v29.111c0 4.142 3.357 7.5 7.5 7.5s7.5-3.358 7.5-7.5v-29.111h30.961v57.199c-.001 4.142 3.357 7.5 7.499 7.5zm-144.368-245.779c14.383 0 26.084 11.702 26.084 26.084v6.871c0 14.383-11.701 26.084-26.084 26.084h-5.984v-59.04h5.984zm-127.284 145.819c1.188 17.131 15.495 30.707 32.921 30.707 17.428 0 31.734-13.576 32.922-30.707h10.029c-1.202 22.649-20.008 40.707-42.951 40.707s-41.748-18.058-42.95-40.707zm50.934-21.177v18.873c0 9.932-8.08 18.011-18.012 18.011s-18.011-8.08-18.011-18.011v-18.873zm-138.458-91.687v-6.871c0-14.383 11.702-26.084 26.085-26.084h5.983v59.04h-5.983c-14.383-.001-26.085-11.702-26.085-26.085zm32.068-55.238v7.283h-5.983c-1.476 0-2.932.082-4.368.235v-106.041c0-1.607 1.308-2.915 2.915-2.915h91.048c18.019 0 32.678 14.659 32.678 32.678v31.802h-79.331c-20.38 0-36.959 16.58-36.959 36.958zm15 90.477v-90.477c0-12.107 9.851-21.958 21.958-21.958h102.841c12.107 0 21.957 9.85 21.957 21.958v90.477c0 22.854-18.593 41.448-41.447 41.448h-63.86c-22.855 0-41.449-18.593-41.449-41.448zm304.608 259.125v30.96h-154.218v-30.96zm-156.718-161.239c-6.893 0-12.5 5.607-12.5 12.5v179.699h-148v-27c0-4.142-3.357-7.5-7.5-7.5s-7.5 3.358-7.5 7.5v27h-37.086v-80.5h37.086v18.5c0 4.142 3.357 7.5 7.5 7.5s7.5-3.358 7.5-7.5v-21c0-6.893-5.607-12.5-12.5-12.5h-39.586v-94.46c0-12.407 10.094-22.5 22.5-22.5h57.622c1.215 30.922 26.738 55.707 57.952 55.707s56.738-24.785 57.953-55.707h52.612c-1.673 4.771-2.593 9.892-2.593 15.227v5.035h-33.46zm48.461-5.034c0-4.559.992-8.887 2.76-12.793 6.684 3.397 11.457 10.031 12.231 17.828h-14.991zm30.029 5.034c-.744-12.568-7.702-23.489-17.841-29.724 5.256-4.046 11.829-6.459 18.959-6.459 17.176 0 31.148 13.973 31.148 31.149v5.035h-32.266z"/>
        </g>
    </g>
</svg>