<svg height="512pt" viewBox="0 0 512 512.91965" width="512pt" xmlns="http://www.w3.org/2000/svg">
    <path d="m377.0625 59.882812-168.925781 169.289063c-1.496094 1.492187-2.5 3.394531-2.925781 5.464844l-15.09375 75.644531c-.707032 3.503906.40625 7.132812 2.925781 9.671875 2.027343 2.027344 4.757812 3.140625 7.558593 3.140625.679688 0 1.386719-.066406 2.089844-.214844l75.476563-15.136718c2.089843-.429688 3.992187-1.429688 5.464843-2.925782l168.925782-169.308594zm0 0"
          fill="#42a5f5"/>
    <path d="m488.570312 23.097656c-20.816406-20.859375-54.679687-20.859375-75.472656 0l-29.550781 29.613282 75.472656 75.644531 29.550781-29.613281c10.078126-10.101563 15.628907-23.53125 15.628907-37.835938s-5.550781-27.734375-15.628907-37.808594zm0 0"
          fill="#42a5f5"/>
    <path d="m368.757812 512.917969h-309.585937c-32.386719 0-58.710937-26.386719-58.710937-58.796875v-310.289063c0-32.410156 26.324218-58.796875 58.710937-58.796875h181.480469c8.839844 0 16.015625 7.171875 16.015625 16.011719s-7.175781 16.011719-16.015625 16.011719h-181.480469c-14.707031 0-26.6875 12-26.6875 26.773437v310.265625c0 14.777344 11.980469 26.773438 26.6875 26.773438h309.585937c14.710938 0 26.6875-11.996094 26.6875-26.773438v-181.882812c0-8.839844 7.171876-16.015625 16.011719-16.015625 8.839844 0 16.011719 7.175781 16.011719 16.015625v181.882812c0 32.433594-26.324219 58.820313-58.710938 58.820313zm0 0"/>
    <path d="m187.746094 341.261719c-4.207032 0-8.285156-1.664063-11.316406-4.675781-3.777344-3.78125-5.421876-9.222657-4.375-14.476563l15.09375-75.644531c.597656-3.09375 2.136718-5.933594 4.355468-8.175782l221.128906-221.621093c22.183594-22.222657 60.890626-22.222657 83.074219 0 22.867188 22.933593 22.867188 60.230469 0 83.160156l-221.128906 221.597656c-2.242187 2.242188-5.082031 3.757813-8.199219 4.398438l-75.472656 15.117187c-1.046875.214844-2.113281.320313-3.160156.320313zm75.496094-31.152344h.214843zm-45.625-52.628906-9.4375 47.355469 47.164062-9.457032 217.667969-218.179687c10.441406-10.441407 10.417969-27.457031 0-37.898438-10.058594-10.097656-27.648438-10.097656-37.707031 0zm0 0"/>
    <path d="m454.160156 134.78125c-4.101562 0-8.222656-1.558594-11.339844-4.699219l-60.378906-60.507812c-6.234375-6.253907-6.234375-16.394531.042969-22.652344 6.234375-6.253906 16.417969-6.234375 22.652344.023437l60.378906 60.507813c6.234375 6.253906 6.234375 16.394531-.042969 22.652344-3.117187 3.117187-7.234375 4.675781-11.3125 4.675781zm0 0"/>
</svg>