<svg height="512pt" viewBox="0 0 512.016 512" width="512pt" xmlns="http://www.w3.org/2000/svg">
    <path d="m325.332031 384.007812c0 35.285157-28.714843 64-64 64h-58.664062c-8.855469 0-16.789063-5.460937-19.925781-13.738281l-154.667969-405.332031c-2.515625-6.550781-1.621094-13.910156 2.347656-19.691406 3.988281-5.78125 10.558594-9.2382815 17.578125-9.2382815h213.332031c35.285157 0 64 28.7148435 64 63.9999995zm0 0"
          fill="#2196f3"/>
    <path d="m197.332031 85.339844v384c0 14.722656-11.945312 26.667968-26.664062 26.667968-2.988281 0-5.761719-.425781-8.535157-1.28125l-128-42.664062c-10.453124-3.628906-18.132812-13.65625-18.132812-25.386719v-384c0-14.722656 11.945312-26.667969 26.667969-26.667969 2.984375 0 5.757812.425782 8.53125 1.28125l128 42.664063c10.453125 3.628906 18.132812 13.65625 18.132812 25.386719zm0 0"
          fill="#64b5f6"/>
    <path d="m157.078125 509.894531-128.171875-42.730469c-17.300781-5.972656-28.90625-22.25-28.90625-40.488281v-384c0-28.097656 27.328125-49.453125 56.257812-40.554687l128.167969 42.730468c17.300781 5.972657 28.90625 22.25 28.90625 40.488282v384c0 23.53125-19.132812 42.667968-42.664062 42.667968-4.566407 0-8.898438-.660156-13.589844-2.113281zm-125.078125-467.21875v384c0 4.542969 3.03125 8.765625 7.1875 10.21875l127.640625 42.558594c6.933594 2.089844 14.503906-2.878906 14.503906-10.113281v-384c0-4.542969-3.027343-8.765625-7.1875-10.21875l-127.660156-42.535156c-1.277344-.40625-2.472656-.578126-3.816406-.578126-5.890625 0-10.667969 4.777344-10.667969 10.667969zm0 0"
          fill="#64b5f6"/>
    <path d="m496 240.007812h-202.667969c-8.832031 0-16-7.167968-16-16 0-8.832031 7.167969-16 16-16h202.667969c8.832031 0 16 7.167969 16 16 0 8.832032-7.167969 16-16 16zm0 0"/>
    <path d="m416 320.007812c-4.097656 0-8.191406-1.558593-11.308594-4.691406-6.25-6.253906-6.25-16.386718 0-22.636718l68.695313-68.691407-68.695313-68.695312c-6.25-6.25-6.25-16.382813 0-22.632813 6.253906-6.253906 16.386719-6.253906 22.636719 0l80 80c6.25 6.25 6.25 16.382813 0 22.632813l-80 80c-3.136719 3.15625-7.230469 4.714843-11.328125 4.714843zm0 0"/>
    <path d="m170.667969 512.007812c-4.566407 0-8.898438-.640624-13.226563-1.984374l-128.386718-42.773438c-17.46875-6.101562-29.054688-22.378906-29.054688-40.574219v-384c0-23.53125 19.136719-42.6679685 42.667969-42.6679685 4.5625 0 8.894531.6406255 13.226562 1.9843755l128.382813 42.773437c17.472656 6.101563 29.054687 22.378906 29.054687 40.574219v384c0 23.53125-19.132812 42.667968-42.664062 42.667968zm-128-480c-5.867188 0-10.667969 4.800782-10.667969 10.667969v384c0 4.542969 3.050781 8.765625 7.402344 10.28125l127.785156 42.582031c.917969.296876 2.113281.46875 3.480469.46875 5.867187 0 10.664062-4.800781 10.664062-10.667968v-384c0-4.542969-3.050781-8.765625-7.402343-10.28125l-127.785157-42.582032c-.917969-.296874-2.113281-.46875-3.476562-.46875zm0 0"/>
    <path d="m325.332031 170.675781c-8.832031 0-16-7.167969-16-16v-96c0-14.699219-11.964843-26.667969-26.664062-26.667969h-240c-8.832031 0-16-7.167968-16-16 0-8.832031 7.167969-15.9999995 16-15.9999995h240c32.363281 0 58.664062 26.3046875 58.664062 58.6679685v96c0 8.832031-7.167969 16-16 16zm0 0"/>
    <path d="m282.667969 448.007812h-85.335938c-8.832031 0-16-7.167968-16-16 0-8.832031 7.167969-16 16-16h85.335938c14.699219 0 26.664062-11.96875 26.664062-26.667968v-96c0-8.832032 7.167969-16 16-16s16 7.167968 16 16v96c0 32.363281-26.300781 58.667968-58.664062 58.667968zm0 0"/>
</svg>