<svg height="429pt" viewBox="0 -1 429.68301 429" width="429pt" xmlns="http://www.w3.org/2000/svg">
    <path d="m308.589844 337.765625 70.199218-33.160156c15.476563-7.8125 34.363282-2.085938 42.890626 13.011719l-142.691407 92.300781c-19.128906 8.828125-40.597656 11.257812-61.21875 6.929687l-98.410156-27.621094c-9.058594-2.539062-18.746094-1.480468-27.039063 2.960938l-20.582031 11.007812 2.773438-100.367187.816406.019531c29.410156-20.894531 68.03125-23.597656 100.0625-7l5.890625 3.046875c9.207031 4.773438 19.378906 7.398438 29.75 7.683594l57.847656 1.597656c18.15625.496094 34.046875 12.335938 39.710938 29.589844zm0 0"
          fill="#f7caa5"/>
    <path d="m391.078125 119.675781c8.828125 12.796875 8.828125 29.714844 0 42.511719-4.316406 6.261719-6.628906 13.691406-6.628906 21.300781 0 .6875.019531 1.386719.0625 2.078125l.019531.28125c.867188 15.308594-7.761719 29.667969-21.980469 36.589844l-.152343.070312c-7.578126 3.644532-13.792969 9.625-17.726563 17.058594l-.070313.140625c-7.191406 13.6875-22.121093 21.988281-38.042968 21.140625l-.277344-.011718c-8.5625-.46875-17.054688 1.742187-24.300781 6.320312-13.503907 8.507812-30.6875 8.507812-44.191407 0-6.59375-4.167969-14.238281-6.382812-22.039062-6.378906-.75 0-1.511719.019531-2.261719.058594l-.277343.011718c-15.921876.847656-30.851563-7.453125-38.039063-21.140625l-.070313-.140625c-3.9375-7.433594-10.152343-13.414062-17.730468-17.058594l-.152344-.070312c-14.230469-6.921875-22.847656-21.28125-21.980469-36.589844l.023438-.28125c.457031-8.304687-1.851563-16.527344-6.570313-23.378906-8.839844-12.792969-8.839844-29.71875 0-42.511719 4.316406-6.261719 6.628906-13.691406 6.628906-21.300781 0-.6875-.019531-1.386719-.058593-2.078125l-.023438-.269531c-.75-15.523438 7.925781-29.964844 21.980469-36.589844l.152344-.070312c7.578125-3.652344 13.789062-9.628907 17.730468-17.0625l.070313-.136719c7.1875-13.691407 22.117187-21.992188 38.039063-21.152344l.277343.019531c8.5625.460938 17.050781-1.746094 24.300781-6.320312 13.503907-8.503906 30.6875-8.503906 44.191407 0 7.25 4.574218 15.742187 6.78125 24.300781 6.320312l.277344-.019531c15.921875-.839844 30.851562 7.460937 38.042968 21.152344l.070313.136719c3.9375 7.433593 10.148437 13.410156 17.726563 17.0625l.152343.070312c14.050781 6.625 22.726563 21.070312 21.980469 36.589844l-.019531.269531c-.460938 8.304687 1.847656 16.53125 6.566406 23.378906zm-60.738281 61.152344c0-17.832031-12.238282-32.28125-27.328125-32.28125-15.089844 0-27.332031 14.449219-27.332031 32.28125 0 17.828125 12.230468 32.289063 27.332031 32.289063 15.097656 0 27.328125-14.449219 27.328125-32.289063zm-86.25-79.792969c0-17.828125-12.238282-32.277344-27.328125-32.277344-15.089844 0-27.332031 14.449219-27.332031 32.277344 0 17.832032 12.242187 32.292969 27.332031 32.292969 15.089843 0 27.328125-14.453125 27.328125-32.292969zm0 0"
          fill="#00efd1"/>
    <path d="m303.011719 148.546875c15.089843 0 27.328125 14.449219 27.328125 32.28125 0 17.828125-12.238282 32.289063-27.328125 32.289063-15.089844 0-27.332031-14.449219-27.332031-32.289063s12.230468-32.28125 27.332031-32.28125zm0 0"
          fill="#00efd1"/>
    <path d="m216.761719 68.757812c15.089843 0 27.328125 14.449219 27.328125 32.277344 0 17.832032-12.238282 32.292969-27.328125 32.292969-15.089844 0-27.332031-14.453125-27.332031-32.292969s12.242187-32.277344 27.332031-32.277344zm0 0"
          fill="#00efd1"/>
    <path d="m71.738281 403.195312-.308593 11.3125-63.429688-1.75 3.828125-139.210937 63.441406 1.738281-.757812 27.542969zm0 0"
          fill="#00acea"/>
    <g fill="#083863">
        <path d="m127.277344 185.070312-.015625.21875c0 .035157 0 .070313-.007813.101563-1.054687 18.539063 9.335938 35.90625 26.46875 44.238281l.109375.050782.066407.03125c6.027343 2.882812 10.964843 7.625 14.09375 13.527343l.03125.0625c.023437.039063.042968.082031.0625.121094 8.628906 16.429687 26.476562 26.386719 45.476562 25.414063l.207031-.007813c.050781 0 .097657 0 .148438-.003906 6.90625-.378907 13.761719 1.402343 19.609375 5.097656 16.109375 10.148437 36.617187 10.148437 52.726562-.003906 5.835938-3.707031 12.6875-5.488281 19.589844-5.101563l.15625.007813.207031.007812c19.011719.980469 36.847657-8.984375 45.476563-25.414062.019531-.039063.042968-.082031.0625-.121094l.03125-.0625c3.109375-5.878906 8.019531-10.605469 14.011718-13.488281l.148438-.070313.113281-.054687c17.128907-8.335938 27.519531-25.699219 26.46875-44.238282l-.011719-.128906-.015624-.214844c-.027344-.519531-.042969-1.042968-.042969-1.5625-.007813-5.980468 1.808593-11.824218 5.210937-16.746093 10.71875-15.53125 10.71875-36.066407.007813-51.601563-3.691407-5.375-5.507813-11.8125-5.175781-18.320312l.015624-.183594c0-.050781.007813-.097656.011719-.152344.933594-18.742187-9.515625-36.203125-26.472656-44.234375-.042969-.023437-.085937-.042969-.128906-.0625l-.097657-.042969c-6-2.886718-10.921874-7.617187-14.042968-13.496093l-.09375-.1875c-8.636719-16.445313-26.488282-26.429688-45.546875-25.417969l-.148438.007812-.203125.015626c-6.882812.367187-13.710937-1.417969-19.535156-5.101563-16.109375-10.148437-36.613281-10.148437-52.722656 0-5.824219 3.6875-12.652344 5.46875-19.539063 5.101563l-.203125-.015626c-.050781 0-.101562-.007812-.148437-.007812-19.050781-1.007812-36.910157 8.972656-45.546875 25.417969l-.09375.1875c-3.121094 5.882812-8.042969 10.613281-14.042969 13.5l-.101563.042969c-.042968.019531-.082031.039062-.125.0625-16.964843 8.03125-27.414062 25.492187-26.472656 44.238281 0 .039062 0 .082031.007813.121093l.015625.214844c.03125.515625.042968 1.042969.042968 1.558594.007813 5.988281-1.808593 11.832031-5.210937 16.753906-10.730469 15.527344-10.730469 36.074219 0 51.601563 3.6875 5.378906 5.503906 11.824219 5.167969 18.339843zm8-60.851562c5.25-7.59375 8.054687-16.609375 8.042968-25.84375 0-.839844-.023437-1.699219-.074218-2.542969 0-.035156 0-.074219-.007813-.113281l-.011719-.199219c-.539062-12.253906 6.332032-23.628906 17.429688-28.855469l.082031-.039062.101563-.046875c9.128906-4.371094 16.605468-11.566406 21.328125-20.523437.023437-.050782.054687-.105469.078125-.15625l.035156-.070313c6.023438-11.035156 17.886719-17.59375 30.433594-16.824219l.203125.015625.140625.007813c10.214844.570312 20.355468-2.066406 29-7.542969 10.890625-6.859375 24.753906-6.859375 35.648437 0 8.644531 5.472656 18.785157 8.109375 29 7.539063l.144531-.007813.199219-.015625c12.546875-.765625 24.40625 5.789062 30.429688 16.824219l.035156.070312c.027344.054688.054687.105469.082031.160157 4.722656 8.953124 12.199219 16.148437 21.328125 20.519531l.097657.046875.085937.039062c11.089844 5.226563 17.960937 16.59375 17.433594 28.839844l-.015625.191406c0 .054688-.007813.109375-.007813.164063-.542969 10.074219 2.261719 20.046875 7.972657 28.367187 6.9375 10.058594 6.9375 23.363282 0 33.421875-5.25 7.59375-8.058594 16.609375-8.042969 25.84375 0 .851563.023437 1.707031.074219 2.542969 0 .039062 0 .082031.003906.121094l.019531.210937c.523437 12.253907-6.355469 23.632813-17.457031 28.859375l-.164063.074219c-9.128906 4.371094-16.609375 11.570313-21.328125 20.527344-.027344.046875-.050781.097656-.074218.144531l-.039063.074219c-5.75 10.902343-17.726563 17.492187-30.5 16.816406l-.144531-.007813-.203125-.007812c-10.191407-.5625-20.300781 2.074219-28.917969 7.542969-10.894531 6.863281-24.757812 6.867187-35.652344.007812-7.875-4.980469-17-7.625-26.316406-7.617187-.867188 0-1.746094.023437-2.609375.066406l-.207031.007812c-.050782 0-.101563 0-.152344.007813-12.570312.800781-24.464844-5.757813-30.5-16.816406l-.035156-.074219c-.023438-.046875-.050782-.097656-.074219-.144531-4.738281-8.980469-12.246094-16.195313-21.410156-20.566407l-.09375-.042968c-11.101563-5.226563-17.976563-16.609375-17.441407-28.867188l.015626-.222656c0-.039062 0-.078125.003906-.117188.542968-10.078124-2.261719-20.050781-7.976563-28.371093-6.949219-10.058594-6.945312-23.363281.007813-33.417969zm0 0"/>
        <path d="m208.265625 223.636719c3.746094 2.339843 8.679687 1.199219 11.019531-2.550781l94.769532-151.820313c1.550781-2.425781 1.675781-5.496094.332031-8.039063-1.34375-2.542968-3.949219-4.171874-6.824219-4.261718-2.878906-.089844-5.578125 1.375-7.078125 3.828125l-94.769531 151.820312c-2.339844 3.75-1.199219 8.683594 2.550781 11.023438zm0 0"/>
        <path d="m216.761719 141.328125c19.480469 0 35.328125-18.074219 35.328125-40.292969 0-22.214844-15.847656-40.277344-35.328125-40.277344-19.484375 0-35.332031 18.066407-35.332031 40.277344 0 22.210938 15.847656 40.292969 35.332031 40.292969zm0-64.570313c10.65625 0 19.328125 10.890626 19.328125 24.277344 0 13.390625-8.671875 24.292969-19.328125 24.292969-10.660157 0-19.332031-10.902344-19.332031-24.292969s8.671874-24.277344 19.332031-24.277344zm0 0"/>
        <path d="m267.679688 180.828125c0 22.214844 15.847656 40.289063 35.332031 40.289063 19.480469 0 35.328125-18.074219 35.328125-40.289063 0-22.21875-15.847656-40.28125-35.328125-40.28125-19.484375 0-35.332031 18.070313-35.332031 40.28125zm54.660156 0c0 13.390625-8.671875 24.289063-19.328125 24.289063-10.660157 0-19.332031-10.902344-19.332031-24.289063 0-13.390625 8.671874-24.28125 19.332031-24.28125 10.65625 0 19.328125 10.890625 19.328125 24.28125zm0 0"/>
        <path d="m428.644531 313.679688c-10.589843-18.796876-34.082031-25.960938-53.359375-16.265626l-62.652344 29.59375c-8.679687-16.074218-25.269531-26.300781-43.53125-26.828124l-57.855468-1.601563c-9.160156-.261719-18.144532-2.582031-26.289063-6.785156l-5.886719-3.050781c-30.140624-15.710938-66.0625-15.675782-96.171874.101562l.367187-13.339844c.125-4.417968-3.359375-8.097656-7.777344-8.21875l-63.4375-1.738281c-.074219 0-.148437 0-.226562 0-4.328125 0-7.871094 3.449219-7.992188 7.777344l-3.82812475 139.210937c-.12109425 4.417969 3.35937475 8.097656 7.77343775 8.21875l63.433594 1.75h.21875c4.335937 0 7.882812-3.449218 8-7.78125l.183593-6.664062 16.488281-8.824219c6.464844-3.476563 14.03125-4.304687 21.097657-2.308594l98.414062 27.621094c.171875.046875.34375.089844.515625.125 7.117188 1.492187 14.371094 2.238281 21.644532 2.234375 15.386718.011719 30.589843-3.308594 44.574218-9.730469.34375-.15625.675782-.335937.992188-.539062l142.691406-92.300781c3.550781-2.300782 4.699219-6.96875 2.613281-10.65625zm-364.90625 89.296874-.089843 3.3125-47.433594-1.308593 3.390625-123.21875 47.445312 1.300781zm211.390625-.09375c-17.375 7.847657-36.785156 10.011719-55.460937 6.1875l-98.148438-27.546874c-11.042969-3.121094-22.867187-1.828126-32.972656 3.609374l-8.429687 4.507813 2.261718-81.925781c26.683594-17.75 60.914063-19.578125 89.332032-4.765625l5.890624 3.050781c10.285157 5.3125 21.636719 8.242188 33.207032 8.574219l57.851562 1.597656c14.777344.421875 27.707032 10.058594 32.332032 24.101563.417968 1.265624.757812 2.550781 1.027343 3.855468l-86.179687-2.371094c-4.417969-.121093-8.09375 3.363282-8.214844 7.777344-.121094 4.417969 3.359375 8.097656 7.777344 8.21875l95.085937 2.609375h.222657c4.332031 0 7.878906-3.449219 8-7.78125.09375-3.476562-.167969-6.953125-.777344-10.378906l64.273437-30.367187.1875-.089844c9.117188-4.617188 20.144531-3.074219 27.640625 3.871094zm0 0"/>
    </g>
</svg>