<svg id="_x31__x2C_5" enable-background="new 0 0 24 24" height="512" viewBox="0 0 24 24" width="512"
     xmlns="http://www.w3.org/2000/svg">
    <path d="m12 .75c-6.203 0-11.25 5.047-11.25 11.25s5.047 11.25 11.25 11.25 11.25-5.047 11.25-11.25-5.047-11.25-11.25-11.25z"
          fill="#2196f3"/>
    <path d="m17.75 9.75h-6.5v-4l-6.5 6.25 6.5 6.25v-4h6.5c.28 0 .5-.22.5-.5v-3.5c0-.28-.22-.5-.5-.5z" fill="#fff"/>
    <path d="m11.25 19c-.19 0-.377-.072-.52-.209l-6.5-6.25c-.147-.142-.23-.337-.23-.541s.083-.399.23-.541l6.5-6.25c.217-.209.538-.267.814-.149s.456.389.456.69v3.25h5.75c.689 0 1.25.561 1.25 1.25v3.5c0 .689-.561 1.25-1.25 1.25h-5.75v3.25c0 .301-.18.572-.456.69-.095.04-.195.06-.294.06zm-5.418-7 4.668 4.488v-2.238c0-.414.336-.75.75-.75h6.25v-3h-6.25c-.414 0-.75-.336-.75-.75v-2.238z"/>
    <path d="m12 24c-6.617 0-12-5.383-12-12s5.383-12 12-12 12 5.383 12 12-5.383 12-12 12zm0-22.5c-5.79 0-10.5 4.71-10.5 10.5s4.71 10.5 10.5 10.5 10.5-4.71 10.5-10.5-4.71-10.5-10.5-10.5z"/>
</svg>