<svg id="Capa_1" enable-background="new 0 0 512.013 512.013" height="512" viewBox="0 0 512.013 512.013" width="512"
     xmlns="http://www.w3.org/2000/svg">
    <g id="XMLID_2460_">
        <path id="XMLID_2479_"
              d="m177 298.006h186.669c19.785 0 37.188-13.079 42.691-32.084l48.358-167.017c5.926-20.467-9.43-40.9-30.737-40.9h-299.606z"
              fill="#cda9e1"/>
        <g id="XMLID_2466_">
            <g id="XMLID_2477_">
                <path id="XMLID_2478_"
                      d="m456 414.006h-309.95c-34.522 0-62.608-28.086-62.608-62.608 0-28.945 19.498-53.815 47.518-60.764l-52.733-236.628h-68.227v-44h68.888c20.378 0 37.707 13.893 42.141 33.783l53.054 238.065c5.12 22.98-9.361 46.05-32.282 51.426-8.454 1.982-14.358 9.433-14.358 18.117 0 10.261 8.348 18.608 18.608 18.608h309.949z"
                      fill="#e2e9ee"/>
            </g>
            <g fill="#6d92ac">
                <circle id="XMLID_2476_" cx="203.015" cy="462.84" r="39.167"/>
                <circle id="XMLID_2474_" cx="373.482" cy="462.84" r="39.167"/>
            </g>
        </g>
        <circle id="XMLID_2465_" cx="414.013" cy="98.006" fill="#adeefa" r="88"/>
        <g id="XMLID_614_">
            <path id="XMLID_1167_"
                  d="m144.083 343.016c18.529-4.345 32.581-18.08 38.266-35.01h181.32c24.091 0 45.597-16.162 52.297-39.303l21.9-75.639c42.547-10.681 74.147-49.247 74.147-95.059 0-54.037-43.963-98-98-98-35.784 0-67.146 19.283-84.252 48h-35.748c-5.522 0-10 4.478-10 10s4.478 10 10 10h26.703c-3.049 9.459-4.703 19.54-4.703 30 0 54.037 43.963 98 98 98 .731 0 1.46-.012 2.188-.028l-19.446 67.163c-4.239 14.641-17.845 24.865-33.086 24.865h-178.662c-.167-2.763-.545-5.545-1.165-8.326l-47.171-211.673h67.364c5.522 0 10-4.478 10-10s-4.478-10-10-10h-71.821l-1.425-6.393c-5.461-24.498-26.804-41.607-51.901-41.607h-68.888c-5.522 0-10 4.478-10 10v44c0 5.522 4.478 10 10 10h60.21l49.007 219.91c-27.377 10.839-45.775 37.348-45.775 67.481 0 40.036 32.572 72.608 72.608 72.608h26.864c-11.588 9.002-19.065 23.057-19.065 38.833 0 27.11 22.056 49.167 49.166 49.167s49.167-22.057 49.167-49.167c0-15.776-7.478-29.831-19.065-38.833h110.265c-11.588 9.002-19.065 23.057-19.065 38.833 0 27.11 22.057 49.167 49.167 49.167s49.166-22.057 49.166-49.167c0-15.776-7.477-29.831-19.065-38.833h52.415c5.522 0 10-4.478 10-10v-44c0-5.522-4.478-10-10-10h-309.95c-4.747 0-8.608-3.861-8.608-8.608-.001-4.017 2.731-7.463 6.641-8.381zm191.93-245.01c0-43.01 34.99-78 78-78s78 34.99 78 78-34.99 78-78 78-78-34.99-78-78zm-132.998 394c-16.082 0-29.166-13.084-29.166-29.167 0-16.082 13.084-29.166 29.166-29.166 16.083 0 29.167 13.084 29.167 29.166 0 16.083-13.084 29.167-29.167 29.167zm170.467 0c-16.083 0-29.167-13.084-29.167-29.167 0-16.082 13.084-29.166 29.167-29.166 16.082 0 29.166 13.084 29.166 29.166 0 16.083-13.084 29.167-29.166 29.167zm-256.041-140.608c0 15.774 12.834 28.608 28.608 28.608h299.951v24h-299.95c-29.009 0-52.608-23.6-52.608-52.608 0-24.232 16.418-45.229 39.925-51.058 5.271-1.307 8.534-6.581 7.354-11.881l-52.734-236.627c-1.02-4.573-5.076-7.825-9.761-7.825h-58.226v-24h58.888c15.658 0 28.974 10.675 32.38 25.958l53.054 238.065c3.935 17.658-7.193 35.385-24.805 39.515-12.997 3.047-22.076 14.501-22.076 27.853z"/>
            <path id="XMLID_1180_"
                  d="m249.013 68.006c2.63 0 5.21-1.07 7.069-2.931 1.86-1.859 2.931-4.439 2.931-7.069s-1.07-5.21-2.931-7.07c-1.859-1.86-4.439-2.93-7.069-2.93s-5.21 1.069-7.07 2.93-2.93 4.44-2.93 7.07 1.069 5.21 2.93 7.069c1.86 1.861 4.44 2.931 7.07 2.931z"/>
            <path id="XMLID_1193_"
                  d="m448.013 88.006h-68c-5.522 0-10 4.478-10 10s4.478 10 10 10h68c5.522 0 10-4.478 10-10s-4.478-10-10-10z"/>
        </g>
    </g>
</svg>