<?xml version="1.0" encoding="iso-8859-1"?>
<!-- Generator: Adobe Illustrator 19.0.0, SVG Export Plug-In . SVG Version: 6.00 Build 0)  -->
<svg version="1.1" id="Capa_1" xmlns="http://www.w3.org/2000/svg" x="0px" y="0px"
	 viewBox="0 0 480 480" style="enable-background:new 0 0 480 480;" xml:space="preserve">
<path style="fill:#FDBD40;" d="M184,408h112c17.673,0,32,14.327,32,32l0,0H152l0,0C152,422.327,166.327,408,184,408z"/>
	<path style="fill:#FCF05A;" d="M72,40h336c17.673,0,32,14.327,32,32v240c0,17.673-14.327,32-32,32H72c-17.673,0-32-14.327-32-32V72
	C40,54.327,54.327,40,72,40z"/>
	<path style="fill:#FDBD40;"
		  d="M40,280h400l0,0v32c0,17.673-14.327,32-32,32H72c-17.673,0-32-14.327-32-32V280L40,280z"/>
	<g>
	<path style="fill:#5F79BA;" d="M24,200h144c8.837,0,16,7.163,16,16v208c0,8.837-7.163,16-16,16H24c-8.837,0-16-7.163-16-16V216
		C8,207.163,15.163,200,24,200z"/>
		<path style="fill:#5F79BA;" d="M392,248h64c8.837,0,16,7.163,16,16v160c0,8.837-7.163,16-16,16h-64c-8.837,0-16-7.163-16-16V264
		C376,255.163,383.163,248,392,248z"/>
</g>
	<g>
	<path style="fill:#FCF05A;" d="M376,408h96l0,0v16c0,8.837-7.163,16-16,16h-64c-8.837,0-16-7.163-16-16V408L376,408z"/>
		<path style="fill:#FCF05A;" d="M8,408h176l0,0v16c0,8.837-7.163,16-16,16H24c-8.837,0-16-7.163-16-16V408L8,408z"/>
		<path style="fill:#FCF05A;" d="M216,344h48v64h-48V344z"/>
		<path style="fill:#FCF05A;" d="M56,336.968c-4.418-0.001-7.999-3.583-7.998-8.002c0-2.121,0.843-4.154,2.342-5.654l33.936-33.936
		c3.069-3.178,8.134-3.266,11.312-0.196c3.178,3.07,3.266,8.134,0.196,11.312c-0.064,0.067-0.13,0.132-0.196,0.196l-33.936,33.936
		C60.156,336.124,58.122,336.968,56,336.968z"/>
		<path style="fill:#FCF05A;" d="M104,336.968c-4.418-0.001-7.999-3.583-7.998-8.002c0-2.121,0.843-4.154,2.342-5.654l33.936-33.936
		c3.178-3.069,8.243-2.982,11.312,0.196c2.994,3.1,2.994,8.015,0,11.116l-33.936,33.936
		C108.156,336.124,106.122,336.968,104,336.968z"/>
</g>
	<g>
	<path style="fill:#FDBD40;" d="M184,207.2c-4.418-0.001-7.999-3.583-7.998-8.002c0-2.121,0.843-4.155,2.342-5.654l79.2-79.2
		c3.178-3.069,8.242-2.982,11.312,0.196c2.994,3.1,2.994,8.015,0,11.116l-79.2,79.2C188.16,206.362,186.123,207.206,184,207.2
		L184,207.2z"/>
		<path style="fill:#FDBD40;" d="M232.8,207.2c-4.418-0.001-7.999-3.583-7.998-8.002c0-2.121,0.843-4.155,2.342-5.654l79.2-79.2
		c3.178-3.069,8.242-2.982,11.312,0.196c2.994,3.1,2.994,8.015,0,11.116l-79.2,79.2C236.956,206.356,234.922,207.2,232.8,207.2
		L232.8,207.2z"/>
</g>
	<path style="fill:#FCF05A;" d="M412.688,347.312c-4.418-0.001-7.999-3.583-7.998-8.002c0-2.121,0.843-4.154,2.342-5.654
	l22.624-22.624c3.178-3.07,8.242-2.982,11.312,0.196c2.995,3.1,2.995,8.016,0,11.116l-22.624,22.624
	C416.844,346.468,414.81,347.312,412.688,347.312z"/>
	<path d="M240.16,320c-4.418,0.022-8.018-3.542-8.04-7.96c-0.022-4.418,3.542-8.018,7.96-8.04h0.08c4.418,0,8,3.582,8,8
	S244.578,320,240.16,320z"/>
	<path style="fill:#FDBD40;"
		  d="M256,80h-32c-4.418,0-8-3.582-8-8s3.582-8,8-8h32c4.418,0,8,3.582,8,8S260.418,80,256,80z"/>
	<path d="M456,240h-8V72c-0.026-22.08-17.92-39.974-40-40H72c-22.08,0.026-39.974,17.92-40,40v120h-8c-13.255,0-24,10.745-24,24v208
	c0,13.255,10.745,24,24,24l0,0h304c4.418,0,8-3.582,8-8c-0.026-22.08-17.92-39.974-40-40h-24v-48h96v72c0,13.255,10.745,24,24,24
	l0,0h64c13.255,0,24-10.745,24-24l0,0V264C480,250.745,469.255,240,456,240z M176,424c0,4.418-3.582,8-8,8H24c-4.418,0-8-3.582-8-8
	v-8h160V424z M176,400H16V216c0-4.418,3.582-8,8-8h144c4.418,0,8,3.582,8,8V400z M296,416c10.168,0.012,19.229,6.418,22.632,16
	H190.528c0.947-2.562,1.445-5.268,1.472-8v-8H296z M192,400v-48h16v48H192z M224,400v-48h32v48H224z M368,336H192v-48h176V336z
	 M368,264v8H192v-56c-0.027-3.796-0.966-7.53-2.736-10.888c0.12-0.112,0.28-0.144,0.392-0.264l79.2-79.2
	c3.069-3.178,2.982-8.243-0.196-11.312c-3.1-2.994-8.015-2.994-11.116,0l-79.2,79.2c-0.192,0.2-0.272,0.456-0.44,0.664
	c-3.104-1.44-6.483-2.19-9.904-2.2H48V72c0-13.255,10.745-24,24-24h336c13.255,0,24,10.745,24,24v168h-40
	C378.745,240,368,250.745,368,264z M464,424c0,4.418-3.582,8-8,8h-64c-4.418,0-8-3.582-8-8v-8h80V424z M464,400h-80V264
	c0-4.418,3.582-8,8-8h64c4.418,0,8,3.582,8,8V400z"/>
	<path d="M95.592,289.376c-3.124-3.123-8.188-3.123-11.312,0l-33.936,33.936c-3.178,3.069-3.266,8.134-0.196,11.312
	c3.069,3.178,8.134,3.266,11.312,0.196c0.067-0.064,0.132-0.13,0.196-0.196l33.936-33.936
	C98.715,297.564,98.715,292.5,95.592,289.376z"/>
	<path d="M132.28,289.376l-33.936,33.936c-3.178,3.069-3.266,8.134-0.196,11.312c3.069,3.178,8.134,3.266,11.312,0.196
	c0.067-0.064,0.132-0.13,0.196-0.196l33.936-33.936c3.07-3.178,2.982-8.242-0.196-11.312
	C140.295,286.382,135.38,286.382,132.28,289.376z"/>
	<path d="M306.344,114.344l-79.2,79.2c-3.178,3.069-3.266,8.134-0.197,11.312c3.069,3.178,8.134,3.266,11.312,0.197
	c0.067-0.064,0.132-0.13,0.197-0.197l79.2-79.2c3.069-3.178,2.982-8.243-0.196-11.312
	C314.359,111.35,309.444,111.35,306.344,114.344z"/>
	<path d="M429.656,311.032l-22.624,22.624c-3.178,3.07-3.266,8.134-0.196,11.312c3.07,3.178,8.134,3.266,11.312,0.196
	c0.066-0.064,0.132-0.129,0.196-0.196l22.624-22.624c3.07-3.178,2.982-8.242-0.196-11.312
	C437.672,308.037,432.756,308.037,429.656,311.032z"/>
	<path d="M240.16,320c4.418,0,8-3.582,8-8s-3.582-8-8-8h-0.08c-4.418,0.022-7.982,3.622-7.96,8.04
	C232.142,316.458,235.742,320.022,240.16,320z"/>
	<path d="M256,64h-32c-4.418,0-8,3.582-8,8s3.582,8,8,8h32c4.418,0,8-3.582,8-8S260.418,64,256,64z"/>
	<g>
</g>
	<g>
</g>
	<g>
</g>
	<g>
</g>
	<g>
</g>
	<g>
</g>
	<g>
</g>
	<g>
</g>
	<g>
</g>
	<g>
</g>
	<g>
</g>
	<g>
</g>
	<g>
</g>
	<g>
</g>
	<g>
</g>
</svg>
