<?xml version="1.0" encoding="iso-8859-1"?>
<!-- Generator: Adobe Illustrator 19.0.0, SVG Export Plug-In . SVG Version: 6.00 Build 0)  -->
<svg version="1.1" id="Capa_1" xmlns="http://www.w3.org/2000/svg" x="0px" y="0px"
	 viewBox="0 0 497.945 497.945" style="enable-background:new 0 0 497.945 497.945;" xml:space="preserve">
<polygon style="fill:#FFCA19;" points="431.543,335.281 482.743,96.836 90.697,96.836 147.749,335.281 "/>
	<polygon style="fill:#E9AE21;" points="482.743,96.836 90.697,96.836 99.474,134.87 471.04,134.87 "/>
	<path d="M431.543,351.373H147.749c-7.314,0-13.166-4.389-14.629-11.703L76.069,99.761c-1.463-4.389,0-8.777,2.926-11.703
	c2.926-2.926,7.314-5.851,11.703-5.851h392.046c4.389,0,8.777,1.463,11.703,5.851c2.926,2.926,4.389,8.777,2.926,13.166
	l-51.2,236.983C444.709,345.521,438.857,351.373,431.543,351.373z M159.451,320.653H419.84l43.886-209.189H109.714L159.451,320.653z
	"/>
	<path d="M90.697,111.464c-7.314,0-13.166-4.389-14.629-11.703L64.366,57.338H14.629C5.851,57.338,0,50.024,0,42.71
	s7.314-14.629,14.629-14.629h61.44c7.314,0,13.166,4.389,14.629,11.703l14.629,54.126c1.463,7.314-2.926,14.629-10.24,17.554
	C93.623,111.464,92.16,111.464,90.697,111.464z"/>
	<path d="M416.914,425.978H99.474c-29.257,0-52.663-23.406-52.663-52.663s23.406-52.663,52.663-52.663h317.44
	c8.777,0,14.629,7.314,14.629,14.629c0,7.314-7.314,14.629-14.629,14.629H99.474c-13.166,0-23.406,10.24-23.406,23.406
	s10.24,23.406,23.406,23.406h317.44c8.777,0,14.629,7.314,14.629,14.629C433.006,420.127,425.691,425.978,416.914,425.978z"/>
	<circle style="fill:#C0D0D6;" cx="383.269" cy="412.813" r="42.423"/>
	<circle style="fill:#849DA9;" cx="383.269" cy="412.813" r="14.629"/>
	<path d="M383.269,469.864c-32.183,0-58.514-26.331-58.514-58.514s26.331-58.514,58.514-58.514s58.514,26.331,58.514,58.514
	S415.451,469.864,383.269,469.864z M383.269,385.018c-16.091,0-27.794,13.166-27.794,27.794c0,16.091,13.166,27.794,27.794,27.794
	s27.794-13.166,27.794-27.794C411.063,396.721,397.897,385.018,383.269,385.018z"/>
	<circle style="fill:#C0D0D6;" cx="150.674" cy="412.813" r="42.423"/>
	<circle style="fill:#849DA9;" cx="150.674" cy="412.813" r="14.629"/>
	<path d="M150.674,469.864c-32.183,0-58.514-26.331-58.514-58.514s26.331-58.514,58.514-58.514s58.514,26.331,58.514,58.514
	S182.857,469.864,150.674,469.864z M150.674,385.018c-16.091,0-27.794,13.166-27.794,27.794c0,16.091,13.166,27.794,27.794,27.794
	s27.794-13.166,27.794-27.794C178.469,396.721,166.766,385.018,150.674,385.018z"/>
	<path d="M219.429,266.527c-8.777,0-14.629-7.314-14.629-14.629V165.59c0-8.777,7.314-14.629,14.629-14.629
	c8.777,0,14.629,7.314,14.629,14.629v86.309C234.057,260.676,228.206,266.527,219.429,266.527z"/>
	<path d="M286.72,266.527c-8.777,0-14.629-7.314-14.629-14.629V165.59c0-8.777,7.314-14.629,14.629-14.629
	c8.777,0,14.629,7.314,14.629,14.629v86.309C301.349,260.676,295.497,266.527,286.72,266.527z"/>
	<path d="M354.011,266.527c-8.777,0-14.629-7.314-14.629-14.629V165.59c0-8.777,7.314-14.629,14.629-14.629
	c8.777,0,14.629,7.314,14.629,14.629v86.309C368.64,260.676,362.789,266.527,354.011,266.527z"/>
	<g>
</g>
	<g>
</g>
	<g>
</g>
	<g>
</g>
	<g>
</g>
	<g>
</g>
	<g>
</g>
	<g>
</g>
	<g>
</g>
	<g>
</g>
	<g>
</g>
	<g>
</g>
	<g>
</g>
	<g>
</g>
	<g>
</g>
</svg>
