<svg id="Capa_1" enable-background="new 0 0 512 512" height="512" viewBox="0 0 512 512" width="512"
     xmlns="http://www.w3.org/2000/svg">
    <g>
        <g>
            <path d="m325.885 55.876h-139.77v-25.941c0-12.391 10.045-22.436 22.436-22.436h94.898c12.391 0 22.436 10.045 22.436 22.436z"
                  fill="#537983"/>
        </g>
        <g>
            <path d="m325.883 29.937v25.938h-23.231v-25.938c0-12.393-10.046-22.439-22.439-22.439h23.231c12.393 0 22.439 10.046 22.439 22.439z"
                  fill="#426970"/>
        </g>
        <g>
            <path d="m414.892 94.952h-317.784v-23.976c0-8.34 6.761-15.1 15.1-15.1h287.583c8.34 0 15.1 6.761 15.1 15.1v23.976z"
                  fill="#7ca1b1"/>
        </g>
        <g>
            <path d="m414.887 70.974v23.983h-26.068v-23.983c0-8.342-6.758-15.1-15.1-15.1h26.068c8.342.001 15.1 6.759 15.1 15.1z"
                  fill="#678d98"/>
        </g>
        <g>
            <path d="m256 155.486h-172.993l32.9 311.3c2.266 21.442 20.35 37.715 41.911 37.715h98.182 98.183c21.561 0 39.645-16.273 41.911-37.715l32.9-311.3z"
                  fill="#7ca1b1"/>
        </g>
        <g>
            <path d="m428.994 155.486-32.896 311.297c-2.266 21.446-20.353 37.719-41.92 37.719h-28.595c21.566 0 39.644-16.273 41.91-37.719l32.906-311.297z"
                  fill="#678d98"/>
        </g>
        <g>
            <path d="m436.982 155.486h-361.964c-4.772 0-8.641-3.869-8.641-8.641v-43.251c0-4.772 3.869-8.641 8.641-8.641h361.964c4.772 0 8.641 3.869 8.641 8.641v43.251c0 4.772-3.869 8.641-8.641 8.641z"
                  fill="#537983"/>
        </g>
        <g>
            <path d="m445.628 103.59v43.253c0 4.773-3.87 8.643-8.643 8.643h-24.885c4.773 0 8.643-3.87 8.643-8.643v-43.253c0-4.773-3.87-8.633-8.643-8.633h24.885c4.772 0 8.643 3.86 8.643 8.633z"
                  fill="#426970"/>
        </g>
        <g>
            <path d="m436.982 87.454h-14.592v-16.478c0-12.461-10.138-22.599-22.599-22.599h-66.408v-18.442c0-16.506-13.428-29.935-29.934-29.935h-39.365c-4.142 0-7.499 3.357-7.499 7.499 0 4.141 3.357 7.499 7.499 7.499h39.365c8.236 0 14.937 6.701 14.937 14.937v18.443h-124.772v-18.443c0-8.236 6.701-14.937 14.937-14.937h20.58c4.141 0 7.499-3.357 7.499-7.499 0-4.141-3.357-7.499-7.499-7.499h-20.58c-16.506 0-29.935 13.429-29.935 29.935v18.443h-66.408c-12.461 0-22.599 10.138-22.599 22.599v16.478h-14.591c-8.899 0-16.14 7.24-16.14 16.139v43.252c0 8.899 7.24 16.14 16.14 16.14h1.241l32.191 304.59c2.676 25.327 23.9 44.426 49.368 44.426h196.365c25.468 0 46.692-19.099 49.367-44.426l26.236-248.243c.436-4.118-2.55-7.81-6.669-8.245-4.111-.433-7.81 2.55-8.245 6.669l-26.237 248.243c-1.867 17.676-16.679 31.004-34.453 31.004h-196.365c-17.774 0-32.586-13.329-34.453-31.004l-32.024-303.015h329.32l-2.148 20.331c-.435 4.119 2.55 7.81 6.669 8.246 4.111.434 7.81-2.55 8.245-6.669l2.316-21.908h1.241c8.9 0 16.14-7.24 16.14-16.14v-43.252c-.001-8.899-7.241-16.139-16.141-16.139zm-332.375-16.478c0-4.191 3.41-7.601 7.601-7.601h287.583c4.192 0 7.601 3.41 7.601 7.601v16.478h-302.785zm333.518 75.869c0 .63-.513 1.142-1.142 1.142h-361.965c-.63 0-1.142-.513-1.142-1.142v-43.252c0-.63.513-1.142 1.142-1.142h361.964c.63 0 1.142.512 1.142 1.142v43.252z"/>
            <path d="m165.275 192.854c-4.129.322-7.215 3.931-6.892 8.06l20.257 259.328c.307 3.93 3.591 6.915 7.467 6.915.196 0 .393-.008.592-.023 4.129-.322 7.215-3.931 6.892-8.06l-20.257-259.328c-.322-4.13-3.933-7.221-8.059-6.892z"/>
            <path d="m338.665 199.746-20.257 259.328c-.322 4.129 2.763 7.737 6.892 8.06.199.016.396.023.592.023 3.876 0 7.161-2.985 7.468-6.915l20.257-259.328c.322-4.129-2.763-7.737-6.892-8.06-4.125-.325-7.736 2.763-8.06 6.892z"/>
            <path d="m248.501 200.33v259.328c0 4.141 3.357 7.499 7.499 7.499s7.499-3.357 7.499-7.499v-259.328c0-4.141-3.358-7.499-7.499-7.499s-7.499 3.357-7.499 7.499z"/>
        </g>
    </g>
</svg>