<svg id="Layer_1" enable-background="new 0 0 512.115 512.115" height="512" viewBox="0 0 512.115 512.115" width="512"
     xmlns="http://www.w3.org/2000/svg">
    <g>
        <circle cx="256.057" cy="256.057" fill="#c8effd" r="248"/>
        <path d="m236.057 8.862c127.613 10.185 228 116.962 228 247.195s-100.387 237.01-228 247.195c144.723 11.545 268-102.541 268-247.195 0-144.557-123.172-258.748-268-247.195z"
              fill="#a0e1fd"/>
        <path d="m328.057 168.057v48c0 24.96-12.7 46.95-32 59.87-47.684 31.929-112-2.364-112-59.87v-48h46.06c21.896 0 42.701-8.762 57.94-24 4.155 6.225 8.325 13.065 18.84 18.7 6.421 3.43 13.66 5.3 21.16 5.3z"
              fill="#ebb19c"/>
        <path d="m306.898 162.758c-10.619-5.691-15.03-12.992-18.84-18.7-15.25 15.254-36.072 24-57.94 24h-46.06v24h46.06c21.896 0 42.701-8.762 57.94-24 2.925 4.382 4.535 7.042 8 10.573v37.427c0 34.239-23.91 62.925-56 70.212 45.036 10.23 88-23.997 88-70.212 0-15.254 0-32.746 0-48-7.501-.001-14.74-1.871-21.16-5.3z"
              fill="#e58d72"/>
        <path d="m360.057 168.057v16h-32v-16c-7.5 0-14.74-1.87-21.16-5.3-10.619-5.691-15.03-12.992-18.84-18.7-15.239 15.238-36.044 24-57.94 24h-46.06v24h-32v-24c0-57.44 46.56-104 104-104s104 46.561 104 104z"
              fill="#595965"/>
        <path d="m240.057 65.283c49.843 7.696 88 50.776 88 102.775v16h32v-16c0-63.445-56.527-112.574-120-102.775z"
              fill="#44454e"/>
        <path d="m184.057 192.057v32h-16c-8.853 0-16-7.16-16-16s7.16-16 16-16z" fill="#ebb19c"/>
        <path d="m360.057 200.057c0 8.854-7.16 16-16 16h-16v-32h16c8.841 0 16 7.161 16 16z" fill="#e58d72"/>
        <path d="m392.057 372.057v30.64c-76.615 71.118-195.293 71.203-272 0v-30.64c0-33.14 26.86-60 60-60h36.8c3.71 18.26 19.85 32 39.2 32s35.49-13.74 39.2-32h36.8c33.141 0 60 26.861 60 60z"
              fill="#79cb9c"/>
        <path d="m332.057 312.057h-32c33.14 0 60 26.86 60 60v30.64c-32.02 29.724-73.805 49.062-120 52.718 56.47 4.471 111.101-14.753 152-52.718v-30.64c0-33.139-26.859-60-60-60z"
              fill="#63ac7d"/>
        <path d="m296.057 275.928c0 29.865.269 30.807-.8 36.13-3.71 18.26-19.85 32-39.2 32s-35.49-13.74-39.2-32c-1.132-5.639-.8-7.539-.8-36.13 24.161 16.177 55.827 16.186 80 0z"
              fill="#ebb19c"/>
        <path d="m216.057 275.928v24c11.558 7.739 25.366 12.146 40.074 12.13 4.303-.005 6.582 3.19 4.948 7.171-3.945 9.609-11.522 17.339-21.021 21.491 23.26 10.164 50.136-3.739 55.2-28.662.997-4.968.8-4.716.8-36.13-24.196 16.201-55.9 16.137-80.001 0z"
              fill="#e58d72"/>
        <path d="m437.077 75.038c-100.045-100.044-261.981-100.057-362.039 0-100.043 100.044-100.058 261.98 0 362.039 100.045 100.044 261.981 100.057 362.039 0 100.043-100.044 100.058-261.98 0-362.039zm-181.02 421.019c-132.336 0-240-107.664-240-240s107.664-240 240-240 240 107.664 240 240-107.663 240-240 240z"/>
        <path d="m332.057 304.057h-28v-24.044c17.41-13.1 29.322-33.129 31.599-55.956h8.401c17.645 0 29.248-18.506 21.654-34.341 1.449-1.448 2.346-3.449 2.346-5.659v-16c0-61.757-50.243-112-112-112s-112 50.243-112 112v24c0 2.21.896 4.211 2.346 5.659-7.597 15.842 4.016 34.341 21.654 34.341h9.61c3.971 19.483 15.045 36.411 30.39 47.956v24.044h-28c-37.495 0-68 30.505-68 68v30.64c0 2.225.927 4.35 2.558 5.863 79.675 73.959 203.11 74.052 282.885 0 1.631-1.514 2.558-3.639 2.558-5.863v-30.64c-.001-37.495-30.505-68-68.001-68zm12-96h-8v-16h8c4.411 0 8 3.589 8 8s-3.588 8-8 8zm-184-40c0-52.935 43.065-96 96-96s96 43.065 96 96v8c-5.596 0-10.404 0-16 0v-8c0-4.418-3.582-8-8-8-12.347 0-23.808-6.133-30.656-16.406-2.558-3.838-4.007-7.104-8.555-7.555-2.386-.244-4.75.609-6.445 2.304-13.966 13.966-32.534 21.657-52.284 21.657h-46.059c-4.418 0-8 3.582-8 8v16c-5.596 0-10.404 0-16 0v-16zm8 48c-4.411 0-8-3.589-8-8s3.589-8 8-8h8v16zm24 0c0-13.903 0-26.139 0-40h38.059c20.836 0 40.591-7.038 56.55-19.988 8.32 10.496 20.245 17.383 33.391 19.384v40.604c0 35.29-28.71 64-64 64s-64-28.709-64-64zm96 73.3v14.7c0 17.645-14.355 32-32 32s-32-14.355-32-32v-14.7c19.863 8.705 43.09 9.164 64 0zm96 109.809c-72.83 65.222-183.218 65.179-256 0v-27.108c0-28.673 23.327-52 52-52h30.752c6.605 18.622 24.389 32 45.248 32s38.643-13.378 45.248-32h30.752c28.673 0 52 23.327 52 52z"/>
    </g>
</svg>